<svg version="1.2" xmlns="http://www.w3.org/2000/svg" viewBox="0 0 128 128" width="128" height="128">
	<title>New Project</title>
	<style>
		.s0 { fill: none;stroke: #000000;stroke-linecap: round;stroke-linejoin: round;stroke-width: 24 } 
	</style>
	<path id="Layer 2" class="s0" d="m108 13c-5.6 3.9-9.2 3.5-15.1 6.8-8.9 5-16.9 11.7-25.6 17-7.3 4.4-17.9 8.6-25.6 12.8-5.9 3.2-11.5 8.1-17.3 11.4-0.4 0.3-4.6 1.7-4.7 2.3-0.1 0.4 17.8 7.7 34.5 20.8 9.8 7.7 21.5 14 38.8 22.8 2.4 1.2 10.7 7.5 13 8.3 1.1 0.4 0-2.3 0-3.4q-0.1-4-0.1-8c-0.2-6.7-0.5-38-0.2-44.7 0.9-22.5 2.6-23.1 2.1-45.4"/>
</svg>