<svg version="1.2" xmlns="http://www.w3.org/2000/svg" viewBox="0 0 2048 2048" width="2048" height="2048">
	<title>Board</title>
	<defs>
		<clipPath clipPathUnits="userSpaceOnUse" id="cp1">
			<path d="m2048 1984c0 35.35-28.65 64-64 64h-1920c-35.35 0-64-28.65-64-64v-1920c0-35.35 28.65-64 64-64h1920c35.35 0 64 28.65 64 64z"/>
		</clipPath>
	</defs>
	<style>
		.s0 { fill: #c7c7c7 } 
		.s1 { fill: #7b7b7b } 
	</style>
	<g id="Folder 2" clip-path="url(#cp1)">
		<path id="Layer 31" class="s0" d="m0 0h2048v2048h-2048z"/>
		<g id="Folder 3">
			<path id="tile" fill-rule="evenodd" class="s1" d="m0 256v-256h256c0 0 10 34 10 64 0 30-10 64-10 64 0 0-10 34-10 64 0 30 10 64 10 64h-128c-0.1 0-34.1-10-64-10-29.9 0-63.9 10-64 10zm256 0c0 0-34 10-64 10-30 0-64-10-64-10zm-128 0q0 0 0 0h-128q0 0 0 0zm-128 0v-128m0 0v-128m0 0h128"/>
			<path id="tile copy" fill-rule="evenodd" class="s1" d="m256 512c0 0-10-34-10-64 0-30 10-64 10-64 0 0 10-34 10-64 0-30-10-64-10-64 0 0 34-10 64-10 30 0 64 10 64 10 0 0 34 10 64 10 30 0 64-10 64-10 0 0 10 34 10 64 0 30-10 64-10 64 0 0-10 34-10 64 0 30 10 64 10 64h-128c-0.1 0-34.1-10-64-10-29.9 0-63.9 10-64 10zm256 0c0 0-34 10-64 10-30 0-64-10-64-10zm-128 0q0 0 0 0h-128q0 0 0 0z"/>
			<path id="tile copy 2" fill-rule="evenodd" class="s1" d="m758 192c0 30 10 64 10 64h-128c-0.1 0-34.1-10-64-10-29.9 0-63.9 10-64 10 0 0-10-34-10-64 0-30 10-64 10-64 0 0 10-34 10-64 0-30-10-64-10-64h256c0 0 10 34 10 64 0 30-10 64-10 64 0 0-10 34-10 64zm10 64c0 0-34 10-64 10-30 0-64-10-64-10zm-128 0q0 0 0 0h-128q0 0 0 0zm-128-256h128"/>
			<path id="tile copy 3" fill-rule="evenodd" class="s1" d="m768 512c0 0-10-34-10-64 0-30 10-64 10-64 0 0 10-34 10-64 0-30-10-64-10-64 0 0 34-10 64-10 30 0 64 10 64 10 0 0 34 10 64 10 30 0 64-10 64-10 0 0 10 34 10 64 0 30-10 64-10 64 0 0-10 34-10 64 0 30 10 64 10 64h-128c-0.1 0-34.1-10-64-10-29.9 0-63.9 10-64 10zm256 0c0 0-34 10-64 10-30 0-64-10-64-10zm-128 0q0 0 0 0h-128q0 0 0 0z"/>
			<path id="tile copy 4" fill-rule="evenodd" class="s1" d="m1270 192c0 30 10 64 10 64h-128c-0.1 0-34.1-10-64-10-29.9 0-63.9 10-64 10 0 0-10-34-10-64 0-30 10-64 10-64 0 0 10-34 10-64 0-30-10-64-10-64h256c0 0 10 34 10 64 0 30-10 64-10 64 0 0-10 34-10 64zm10 64c0 0-34 10-64 10-30 0-64-10-64-10zm-128 0q0 0 0 0h-128q0 0 0 0z"/>
			<path id="tile copy 5" fill-rule="evenodd" class="s1" d="m1280 512c0 0-10-34-10-64 0-30 10-64 10-64 0 0 10-34 10-64 0-30-10-64-10-64 0 0 34-10 64-10 30 0 64 10 64 10 0 0 34 10 64 10 30 0 64-10 64-10 0 0 10 34 10 64 0 30-10 64-10 64 0 0-10 34-10 64 0 30 10 64 10 64h-128c-0.1 0-34.1-10-64-10-29.9 0-63.9 10-64 10zm256 0c0 0-34 10-64 10-30 0-64-10-64-10zm-128 0q0 0 0 0h-128q0 0 0 0z"/>
			<path id="tile copy 6" fill-rule="evenodd" class="s1" d="m1782 192c0 30 10 64 10 64h-128c-0.1 0-34.1-10-64-10-29.9 0-63.9 10-64 10 0 0-10-34-10-64 0-30 10-64 10-64 0 0 10-34 10-64 0-30-10-64-10-64h256c0 0 10 34 10 64 0 30-10 64-10 64 0 0-10 34-10 64zm10 64c0 0-34 10-64 10-30 0-64-10-64-10zm-128 0q0 0 0 0h-128q0 0 0 0zm128-256h-128m-128 0h128"/>
			<path id="tile copy 7" fill-rule="evenodd" class="s1" d="m2048 512h-128c-0.1 0-34.1-10-64-10-29.9 0-63.9 10-64 10 0 0-10-34-10-64 0-30 10-64 10-64 0 0 10-34 10-64 0-30-10-64-10-64 0 0 34-10 64-10 30 0 64 10 64 10 0 0 34 10 64 10 30 0 64-10 64-10zm0 0c0 0-34 10-64 10-30 0-64-10-64-10zm-128 0q0 0 0 0h-128q0 0 0 0zm128 0v-128m0-128v128"/>
		</g>
		<g id="Folder 3 copy">
			<path id="tile" fill-rule="evenodd" class="s1" d="m192 522c30 0 64-10 64-10 0 0 10 34 10 64 0 30-10 64-10 64 0 0-10 34-10 64 0 30 10 64 10 64h-128c-0.1 0-34.1-10-64-10-29.9 0-63.9 10-64 10v-256c0 0 34-10 64-10 30 0 64 10 64 10 0 0 34 10 64 10zm64 246c0 0-34 10-64 10-30 0-64-10-64-10zm-128 0q0 0 0 0h-128q0 0 0 0zm-128-128v-128"/>
			<path id="tile copy" fill-rule="evenodd" class="s1" d="m256 1024c0 0-10-34-10-64 0-30 10-64 10-64 0 0 10-34 10-64 0-30-10-64-10-64 0 0 34-10 64-10 30 0 64 10 64 10 0 0 34 10 64 10 30 0 64-10 64-10 0 0 10 34 10 64 0 30-10 64-10 64 0 0-10 34-10 64 0 30 10 64 10 64h-128c-0.1 0-34.1-10-64-10-29.9 0-63.9 10-64 10zm256 0c0 0-34 10-64 10-30 0-64-10-64-10zm-128 0q0 0 0 0h-128q0 0 0 0z"/>
			<path id="tile copy 2" fill-rule="evenodd" class="s1" d="m512 768c0 0-10-34-10-64 0-30 10-64 10-64 0 0 10-34 10-64 0-30-10-64-10-64 0 0 34-10 64-10 30 0 64 10 64 10 0 0 34 10 64 10 30 0 64-10 64-10 0 0 10 34 10 64 0 30-10 64-10 64 0 0-10 34-10 64 0 30 10 64 10 64h-128c-0.1 0-34.1-10-64-10-29.9 0-63.9 10-64 10zm256 0c0 0-34 10-64 10-30 0-64-10-64-10zm-128 0q0 0 0 0h-128q0 0 0 0z"/>
			<path id="tile copy 3" fill-rule="evenodd" class="s1" d="m768 1024c0 0-10-34-10-64 0-30 10-64 10-64 0 0 10-34 10-64 0-30-10-64-10-64 0 0 34-10 64-10 30 0 64 10 64 10 0 0 34 10 64 10 30 0 64-10 64-10 0 0 10 34 10 64 0 30-10 64-10 64 0 0-10 34-10 64 0 30 10 64 10 64h-128c-0.1 0-34.1-10-64-10-29.9 0-63.9 10-64 10zm256 0c0 0-34 10-64 10-30 0-64-10-64-10zm-128 0q0 0 0 0h-128q0 0 0 0z"/>
			<path id="tile copy 4" fill-rule="evenodd" class="s1" d="m1024 768c0 0-10-34-10-64 0-30 10-64 10-64 0 0 10-34 10-64 0-30-10-64-10-64 0 0 34-10 64-10 30 0 64 10 64 10 0 0 34 10 64 10 30 0 64-10 64-10 0 0 10 34 10 64 0 30-10 64-10 64 0 0-10 34-10 64 0 30 10 64 10 64h-128c-0.1 0-34.1-10-64-10-29.9 0-63.9 10-64 10zm256 0c0 0-34 10-64 10-30 0-64-10-64-10zm-128 0q0 0 0 0h-128q0 0 0 0z"/>
			<path id="tile copy 5" fill-rule="evenodd" class="s1" d="m1280 1024c0 0-10-34-10-64 0-30 10-64 10-64 0 0 10-34 10-64 0-30-10-64-10-64 0 0 34-10 64-10 30 0 64 10 64 10 0 0 34 10 64 10 30 0 64-10 64-10 0 0 10 34 10 64 0 30-10 64-10 64 0 0-10 34-10 64 0 30 10 64 10 64h-128c-0.1 0-34.1-10-64-10-29.9 0-63.9 10-64 10zm256 0c0 0-34 10-64 10-30 0-64-10-64-10zm-128 0q0 0 0 0h-128q0 0 0 0z"/>
			<path id="tile copy 6" fill-rule="evenodd" class="s1" d="m1536 768c0 0-10-34-10-64 0-30 10-64 10-64 0 0 10-34 10-64 0-30-10-64-10-64 0 0 34-10 64-10 30 0 64 10 64 10 0 0 34 10 64 10 30 0 64-10 64-10 0 0 10 34 10 64 0 30-10 64-10 64 0 0-10 34-10 64 0 30 10 64 10 64h-128c-0.1 0-34.1-10-64-10-29.9 0-63.9 10-64 10zm256 0c0 0-34 10-64 10-30 0-64-10-64-10zm-128 0q0 0 0 0h-128q0 0 0 0z"/>
			<path id="tile copy 7" fill-rule="evenodd" class="s1" d="m2048 1024h-128c-0.1 0-34.1-10-64-10-29.9 0-63.9 10-64 10 0 0-10-34-10-64 0-30 10-64 10-64 0 0 10-34 10-64 0-30-10-64-10-64 0 0 34-10 64-10 30 0 64 10 64 10 0 0 34 10 64 10 30 0 64-10 64-10zm0 0c0 0-34 10-64 10-30 0-64-10-64-10zm-128 0q0 0 0 0h-128q0 0 0 0zm128 0v-128m0-128v128"/>
		</g>
		<g id="Folder 3 copy 2">
			<path id="tile" fill-rule="evenodd" class="s1" d="m192 1034c30 0 64-10 64-10 0 0 10 34 10 64 0 30-10 64-10 64 0 0-10 34-10 64 0 30 10 64 10 64h-128c-0.1 0-34.1-10-64-10-29.9 0-63.9 10-64 10v-256c0 0 34-10 64-10 30 0 64 10 64 10 0 0 34 10 64 10zm64 246c0 0-34 10-64 10-30 0-64-10-64-10zm-128 0q0 0 0 0h-128q0 0 0 0zm-128 0v-128m0 0v-128"/>
			<path id="tile copy" fill-rule="evenodd" class="s1" d="m256 1536c0 0-10-34-10-64 0-30 10-64 10-64 0 0 10-34 10-64 0-30-10-64-10-64 0 0 34-10 64-10 30 0 64 10 64 10 0 0 34 10 64 10 30 0 64-10 64-10 0 0 10 34 10 64 0 30-10 64-10 64 0 0-10 34-10 64 0 30 10 64 10 64h-128c-0.1 0-34.1-10-64-10-29.9 0-63.9 10-64 10zm256 0c0 0-34 10-64 10-30 0-64-10-64-10zm-128 0q0 0 0 0h-128q0 0 0 0z"/>
			<path id="tile copy 2" fill-rule="evenodd" class="s1" d="m512 1280c0 0-10-34-10-64 0-30 10-64 10-64 0 0 10-34 10-64 0-30-10-64-10-64 0 0 34-10 64-10 30 0 64 10 64 10 0 0 34 10 64 10 30 0 64-10 64-10 0 0 10 34 10 64 0 30-10 64-10 64 0 0-10 34-10 64 0 30 10 64 10 64h-128c-0.1 0-34.1-10-64-10-29.9 0-63.9 10-64 10zm256 0c0 0-34 10-64 10-30 0-64-10-64-10zm-128 0q0 0 0 0h-128q0 0 0 0z"/>
			<path id="tile copy 3" fill-rule="evenodd" class="s1" d="m768 1536c0 0-10-34-10-64 0-30 10-64 10-64 0 0 10-34 10-64 0-30-10-64-10-64 0 0 34-10 64-10 30 0 64 10 64 10 0 0 34 10 64 10 30 0 64-10 64-10 0 0 10 34 10 64 0 30-10 64-10 64 0 0-10 34-10 64 0 30 10 64 10 64h-128c-0.1 0-34.1-10-64-10-29.9 0-63.9 10-64 10zm256 0c0 0-34 10-64 10-30 0-64-10-64-10zm-128 0q0 0 0 0h-128q0 0 0 0z"/>
			<path id="tile copy 4" fill-rule="evenodd" class="s1" d="m1024 1280c0 0-10-34-10-64 0-30 10-64 10-64 0 0 10-34 10-64 0-30-10-64-10-64 0 0 34-10 64-10 30 0 64 10 64 10 0 0 34 10 64 10 30 0 64-10 64-10 0 0 10 34 10 64 0 30-10 64-10 64 0 0-10 34-10 64 0 30 10 64 10 64h-128c-0.1 0-34.1-10-64-10-29.9 0-63.9 10-64 10zm256 0c0 0-34 10-64 10-30 0-64-10-64-10zm-128 0q0 0 0 0h-128q0 0 0 0z"/>
			<path id="tile copy 5" fill-rule="evenodd" class="s1" d="m1280 1536c0 0-10-34-10-64 0-30 10-64 10-64 0 0 10-34 10-64 0-30-10-64-10-64 0 0 34-10 64-10 30 0 64 10 64 10 0 0 34 10 64 10 30 0 64-10 64-10 0 0 10 34 10 64 0 30-10 64-10 64 0 0-10 34-10 64 0 30 10 64 10 64h-128c-0.1 0-34.1-10-64-10-29.9 0-63.9 10-64 10zm256 0c0 0-34 10-64 10-30 0-64-10-64-10zm-128 0q0 0 0 0h-128q0 0 0 0z"/>
			<path id="tile copy 6" fill-rule="evenodd" class="s1" d="m1536 1280c0 0-10-34-10-64 0-30 10-64 10-64 0 0 10-34 10-64 0-30-10-64-10-64 0 0 34-10 64-10 30 0 64 10 64 10 0 0 34 10 64 10 30 0 64-10 64-10 0 0 10 34 10 64 0 30-10 64-10 64 0 0-10 34-10 64 0 30 10 64 10 64h-128c-0.1 0-34.1-10-64-10-29.9 0-63.9 10-64 10zm256 0c0 0-34 10-64 10-30 0-64-10-64-10zm-128 0q0 0 0 0h-128q0 0 0 0z"/>
			<path id="tile copy 7" fill-rule="evenodd" class="s1" d="m2048 1536h-128c-0.1 0-34.1-10-64-10-29.9 0-63.9 10-64 10 0 0-10-34-10-64 0-30 10-64 10-64 0 0 10-34 10-64 0-30-10-64-10-64 0 0 34-10 64-10 30 0 64 10 64 10 0 0 34 10 64 10 30 0 64-10 64-10zm0 0c0 0-34 10-64 10-30 0-64-10-64-10zm-128 0q0 0 0 0h-128q0 0 0 0zm128 0v-128m0-128v128"/>
		</g>
		<g id="Folder 3 copy 3">
			<path id="tile" fill-rule="evenodd" class="s1" d="m192 1546c30 0 64-10 64-10 0 0 10 34 10 64 0 30-10 64-10 64 0 0-10 34-10 64 0 30 10 64 10 64h-128c-0.1 0-34.1-10-64-10-29.9 0-63.9 10-64 10v-256c0 0 34-10 64-10 30 0 64 10 64 10 0 0 34 10 64 10zm64 246c0 0-34 10-64 10-30 0-64-10-64-10zm-128 0q0 0 0 0h-128q0 0 0 0zm-128 0v-128m0 0v-128"/>
			<path id="tile copy" fill-rule="evenodd" class="s1" d="m256 2048c0 0-10-34-10-64 0-30 10-64 10-64 0 0 10-34 10-64 0-30-10-64-10-64 0 0 34-10 64-10 30 0 64 10 64 10 0 0 34 10 64 10 30 0 64-10 64-10v128c0 0-10 34-10 64 0 30 10 64 10 64zm266-192c0-30-10-64-10-64v128c0 0 10-34 10-64zm-10 192h-128m-128 0h128"/>
			<path id="tile copy 2" fill-rule="evenodd" class="s1" d="m512 1792c0 0-10-34-10-64 0-30 10-64 10-64 0 0 10-34 10-64 0-30-10-64-10-64 0 0 34-10 64-10 30 0 64 10 64 10 0 0 34 10 64 10 30 0 64-10 64-10 0 0 10 34 10 64 0 30-10 64-10 64 0 0-10 34-10 64 0 30 10 64 10 64h-128c-0.1 0-34.1-10-64-10-29.9 0-63.9 10-64 10zm256 0c0 0-34 10-64 10-30 0-64-10-64-10zm-128 0q0 0 0 0h-128q0 0 0 0z"/>
			<path id="tile copy 3" fill-rule="evenodd" class="s1" d="m768 2048c0 0-10-34-10-64 0-30 10-64 10-64 0 0 10-34 10-64 0-30-10-64-10-64 0 0 34-10 64-10 30 0 64 10 64 10 0 0 34 10 64 10 30 0 64-10 64-10v128c0 0-10 34-10 64 0 30 10 64 10 64zm266-192c0-30-10-64-10-64v128c0 0 10-34 10-64zm-10 192h-128m-128 0h128"/>
			<path id="tile copy 4" fill-rule="evenodd" class="s1" d="m1024 1792c0 0-10-34-10-64 0-30 10-64 10-64 0 0 10-34 10-64 0-30-10-64-10-64 0 0 34-10 64-10 30 0 64 10 64 10 0 0 34 10 64 10 30 0 64-10 64-10 0 0 10 34 10 64 0 30-10 64-10 64 0 0-10 34-10 64 0 30 10 64 10 64h-128c-0.1 0-34.1-10-64-10-29.9 0-63.9 10-64 10zm256 0c0 0-34 10-64 10-30 0-64-10-64-10zm-128 0q0 0 0 0h-128q0 0 0 0z"/>
			<path id="tile copy 5" fill-rule="evenodd" class="s1" d="m1280 2048c0 0-10-34-10-64 0-30 10-64 10-64 0 0 10-34 10-64 0-30-10-64-10-64 0 0 34-10 64-10 30 0 64 10 64 10 0 0 34 10 64 10 30 0 64-10 64-10v128c0 0-10 34-10 64 0 30 10 64 10 64zm266-192c0-30-10-64-10-64v128c0 0 10-34 10-64zm-10 192h-128m-128 0h128"/>
			<path id="tile copy 6" fill-rule="evenodd" class="s1" d="m1536 1792c0 0-10-34-10-64 0-30 10-64 10-64 0 0 10-34 10-64 0-30-10-64-10-64 0 0 34-10 64-10 30 0 64 10 64 10 0 0 34 10 64 10 30 0 64-10 64-10 0 0 10 34 10 64 0 30-10 64-10 64 0 0-10 34-10 64 0 30 10 64 10 64h-128c-0.1 0-34.1-10-64-10-29.9 0-63.9 10-64 10zm256 0c0 0-34 10-64 10-30 0-64-10-64-10zm-128 0q0 0 0 0h-128q0 0 0 0z"/>
			<path id="tile copy 7" fill-rule="evenodd" class="s1" d="m2048 2048h-256c0 0-10-34-10-64 0-30 10-64 10-64 0 0 10-34 10-64 0-30-10-64-10-64h128c0 0 34 10 64 10 30 0 64-10 64-10zm-192-266c-30 0-64 10-64 10h128c0 0-34-10-64-10zm192 266v-128m0-128v128m0 128h-128m-128 0h128"/>
		</g>
	</g>
</svg>