<svg version="1.2" xmlns="http://www.w3.org/2000/svg" viewBox="0 0 2161 2161" width="2161" height="2161">
	<title>Board</title>
	<style>
		.s0 { fill: none;stroke: #000000;stroke-linecap: round;stroke-linejoin: round;stroke-width: 32 } 
	</style>
	<path id="Layer 32" fill-rule="evenodd" class="s0" d="m64.9 278.3c-2-30.2 2.5-101.5 1.6-129.3-0.5-14.4-2.5-44.3 2-58.6 11.7-36.5 56.8-41.1 67.7-41.5 46-1.4 86.5 4.3 92.6 4.7 48.3 3.8 92.3 6 140.8 5.5 55.6-0.6 118.3-4.9 174-5.6 91.3-1.2 175.5 4.2 266.6 4.2 291.6 0 582.5-4.6 874.4-3 86.5 0.5 173.1 0.1 259.6 0 74.9-0.1 154.7-15.6 169 66.9 12.8 73.9-12.6 151.2-17.3 225.9-5.2 81.9-6.7 165.9-2 248 3.2 55.8 7.6 111.1 9.9 167.1 7.3 176.3-2.7 349.5-5.8 525.1-0.8 48.1-5.7 96-8.8 144-4.6 72.4-1.5 147.2-0.2 219.8 1.5 79 18 158.4 18 237.1 0 26.6-0.8 53.4 0 80.1 0.7 22.9 2.5 47.1-4.9 70.1-7.6 23.6 3.1 57.4-58.8 69.9-96.9 19.7-148.2 4-243.2 4-173.6 0-346.8 6-520.5 6-214.3 0-428.2-9-642.6-9q-84 0-168.1 0c-25.4 0-52.6-2.6-77.9 0.2-57 6.4-113.3 1.9-172.1 9-55.9 6.8-126.2-0.7-150.3-30.3-17.1-21-14.5-64.2-11.1-87.8 5.6-38.9-0.5-63.1 1.3-101 0.9-17.7 4.6-111.2 3.4-143.8-4.3-120.7-6.4-238.4-10-359.5-2.7-91.2 2.8-183.1 2.8-274.5 0-47.8 3.2-96.9-0.2-144.6-4.9-69.3-9.8-138.9-8.8-208.7 0.6-38.5 5.6-78.7 11.2-116.8 8-54.5 4.1-122.8 6.4-177.7 4-96.6 5-137.6 1.3-195.9z"/>
</svg>