<svg version="1.2" xmlns="http://www.w3.org/2000/svg" viewBox="0 0 256 256" width="256" height="256">
	<title>New Project</title>
	<style>
		.s0 { fill: none;stroke: #000000;stroke-linecap: round;stroke-linejoin: round;stroke-width: 32 } 
		.s1 { fill: #000000;stroke: #000000;stroke-linecap: round;stroke-linejoin: round;stroke-width: 32 } 
		.s2 { fill: none;stroke: #ff5b4a;stroke-linecap: round;stroke-linejoin: round;stroke-width: 16 } 
		.s3 { fill: #ff5b4a;stroke: #ff5b4a;stroke-linecap: round;stroke-linejoin: round;stroke-width: 16 } 
		.s4 { fill: none;stroke: #00b966;stroke-linecap: round;stroke-linejoin: round;stroke-width: 16 } 
		.s5 { fill: #00b966;stroke: #00b966;stroke-linecap: round;stroke-linejoin: round;stroke-width: 16 } 
	</style>
	<path id="Layer 1 copy" class="s0" d="m28.4 166.2c6.2-42 46.5-91.9 86.1-107.3 18.9-7.3 58.2-10.1 78.9-7.3"/>
	<path id="Shape 1 copy" fill-rule="evenodd" class="s1" d="m174.4 29.4c5.6 6.3 12.6 11.3 18.3 17.5 1.1 1.2 5.5 4.1 5.8 5.9 0.2 1.2-7.2 5-8.4 5.6-9.4 5-16.6 13.8-25.6 19-1.2 0.7 0.8-2.7 1-4.1 0.4-2.9 0.7-5.9 0.6-8.9-0.2-9.8 0.5-19.7 1.7-29.5 0.3-2.6 1.5-6.4 1-8.9-0.2-0.9 4 1.7 5.6 3.4z"/>
	<path id="Layer 1" class="s2" d="m28.4 166.2c6.2-42 46.5-91.9 86.1-107.3 18.9-7.3 58.2-10.1 78.9-7.3"/>
	<path id="Shape 1" fill-rule="evenodd" class="s3" d="m174.4 29.4c5.6 6.3 12.6 11.3 18.3 17.5 1.1 1.2 5.5 4.1 5.8 5.9 0.2 1.2-7.2 5-8.4 5.6-9.4 5-16.6 13.8-25.6 19-1.2 0.7 0.8-2.7 1-4.1 0.4-2.9 0.7-5.9 0.6-8.9-0.2-9.8 0.5-19.7 1.7-29.5 0.3-2.6 1.5-6.4 1-8.9-0.2-0.9 4 1.7 5.6 3.4z"/>
	<path id="Layer 2 copy" class="s0" d="m228.4 80.4c-3 14.7-4.8 29.1-10.7 43.1-26.7 63-92.6 87.4-149.5 75.9"/>
	<path id="Layer 3 copy" fill-rule="evenodd" class="s1" d="m68.8 185.9c6.4-3.9 13.8-6.9 20.7-10.1 2.4-1.2 4.7-2.3 7.2-3.4 1-0.4 2.3-2.4 2.8-1.4 0.9 1.5-1.8 6.7-1.9 8.5-0.5 9.3-3.8 18.8-6 27.9-1.3 5.6-1.8 11.3-3.1 16.9-0.2 0.5-1.2 5.3-1.5 5.2-1.5-0.4-4.1-5.5-5.2-6.8-4.7-6-10.1-11.5-14.4-17.8-2.8-4.1-7.6-6.6-10.7-10.5-0.3-0.4 8.9-6.5 12.1-8.5z"/>
	<path id="Layer 2" class="s4" d="m228.4 80.4c-3 14.7-4.8 29.1-10.7 43.1-26.7 63-92.6 87.4-149.5 75.9"/>
	<path id="Layer 3" fill-rule="evenodd" class="s5" d="m68.8 185.9c6.4-3.9 13.8-6.9 20.7-10.1 2.4-1.2 4.7-2.3 7.2-3.4 1-0.4 2.3-2.4 2.8-1.4 0.9 1.5-1.8 6.7-1.9 8.5-0.5 9.3-3.8 18.8-6 27.9-1.3 5.6-1.8 11.3-3.1 16.9-0.2 0.5-1.2 5.3-1.5 5.2-1.5-0.4-4.1-5.5-5.2-6.8-4.7-6-10.1-11.5-14.4-17.8-2.8-4.1-7.6-6.6-10.7-10.5-0.3-0.4 8.9-6.5 12.1-8.5z"/>
</svg>