<svg version="1.2" xmlns="http://www.w3.org/2000/svg" viewBox="0 0 256 256" width="256" height="256">
	<title>Captures</title>
	<style>
		.s0 { fill: #00b966;stroke: #000000;stroke-linecap: round;stroke-linejoin: round;stroke-width: 16 } 
		.s1 { fill: #ff5b4a;stroke: #000000;stroke-linecap: round;stroke-linejoin: round;stroke-width: 16 } 
	</style>
	<path id="Layer 4" fill-rule="evenodd" class="s0" d="m178.6 159.5c5.5-5.9 13.5-16.5 17.5-23.5 9.9-17.5 9.2-36.9 18.4-54.6 5.7-11.1 22.8-8.9 24.4 5.6 2.3 21.3-7.8 49.2-18.4 67.2-8.6 14.6-18 25.8-30.6 35.6-20.2 15.6-43 24.2-59.2 27-13.4 2.3-11.9 1.2-18.4 2.5-2.4 0.5-3.6 9.2-4.2 10.9-1.2 8.6-3.7 15.7-10.1 14.3-15.8-3.7-40.9-32-47.2-45.6-2.8-5.9 4.8-11.4 8.7-14.3 7.1-5.5 40.1-22.3 48.2-21 8.1 1.4 9 7.7 9 15.2 0 2.4-0.2 4.6-0.2 7.1 0 1-1.4 3.9-0.3 3.7 14.7-2.5 29.8-6.5 43.6-14.5 7.8-4.5 17.7-14.5 18.8-15.6z"/>
	<path id="Layer 5" fill-rule="evenodd" class="s1" d="m48.5 144.7c2.3-8.4 7.4-18.8 12.2-26.6 12.9-21.1 28.9-36.7 50.9-47.3 8.4-4 21.1-7.4 30.8-5.7 0.5 0.1-0.1 10.2 0 11.8 0.5 10.8 9 12.1 16.8 11.8 4.4-0.1 8.3-3.2 12.1-5.1 9.7-4.9 38.4-23.8 30.3-37-6.1-9.7-27-35.2-39.1-35.6-8.2-0.3-14.1 2.7-15.6 11.3-0.2 1.1-3.1 14.8-3.2 14.8-15.1 0.6-30.8 1.2-45.5 8.4-30.3 14.7-55.8 38.9-70.3 69.5-6.7 14.1-13.6 30.7-11.5 47 1.2 10.4 13 12.1 17.5 10.9 10-2.5 12.1-17.3 14.4-27.5"/>
</svg>