<svg version="1.2" xmlns="http://www.w3.org/2000/svg" viewBox="0 0 256 256" width="256" height="256">
	<title>Checkmark</title>
	<style>
		.s0 { fill: #00e620;stroke: #000000;stroke-linecap: round;stroke-linejoin: round;stroke-width: 16 } 
	</style>
	<path id="Layer 1" fill-rule="evenodd" class="s0" d="m172.9 151.9c2.2-8.2 3.9-15.3 5.9-23.6 7.3-30.2 18.1-60.1 29.1-88.8 3.1-8.2 4.1-22.5-7.7-24.3-20-2.9-21.4 21.3-26.1 34.8-7.6 22.5-16.2 45-22.6 68.4-4.2 15.2-8.5 29-13.3 44.1-2.9 9-6.3 25.2-6.3 25.2-0.5 1.7-2.7 13.8-4.4 14.5-0.3 0.1-4-4.1-4.3-4.6-2.6-3.8-7.4-5.8-10.9-8.7-4.4-3.6-8.5-8.2-12.6-12.2-9.4-9.1-17.3-19.8-27.8-27.9-4.6-3.5-12.7-5.1-18.3-2.1-8.9 4.7-9.6 15.9-4.1 22.3 4.2 4.9 8.7 8.4 13.4 12.5 4.3 3.8 9.2 7.4 12.7 11.8 5.2 6.3 10.8 10.7 15.9 15.8 5 5 11.4 9 16.5 14 8.5 8.4 11.8 17.5 24.5 17.1 8.8-0.3 13.2-7.1 15.9-14 6.4-15.9 10.8-31.7 15.7-48.2 1-3.4 8.3-24.1 8.8-26.1z"/>
</svg>