<svg version="1.2" xmlns="http://www.w3.org/2000/svg" viewBox="0 0 256 256" width="256" height="256">
	<title>New Project</title>
	<style>
		.s0 { fill: none;stroke: #000000;stroke-linecap: round;stroke-linejoin: round;stroke-width: 20 } 
	</style>
	<path id="Layer 1" class="s0" d="m31.2 51.1c3.5-7.8 15.2-18.4 20-24 0.4-0.6 4-5.9 5-5.6 0.3 0 0.6 4.8 0.6 5 0.7 4.6 0.9 9.3 1.5 13.9 3 20.9 6.5 42.4 11.8 62.8"/>
	<path id="Shape 1" class="s0" d="m35.5 109.2c11.7-0.5 21.3-3.4 32.9-5.3 12.8-2 22.1-2.1 34.6-5.6"/>
	<path id="Shape 2" class="s0" d="m50 188c29.6-21.3 57.6-44.1 86.2-66.9 18.5-14.9 39.4-28.7 55.3-46.5"/>
	<path id="Shape 3" class="s0" d="m155.6 153.8c4.7-5.3 13.7-6 19.7-6.6 20.1-1.8 46.2 6.9 40 37.5-5.2 25.4-25.1 38.7-45.7 42.7-6.9 1.3-13.8 2.1-20.8 3-0.5 0.1-5.3 0-5.7 0.8-0.6 1.1 2.3-0.5 3.4-0.7q2.3-0.3 4.7-0.5c4.8-0.5 9.6-0.5 14.4-0.5 17.1 0.1 35.4 0.4 52.1 5"/>
</svg>