<svg version="1.2" xmlns="http://www.w3.org/2000/svg" viewBox="0 0 128 128" width="128" height="128">
	<title>New Project</title>
	<style>
		.s0 { fill: none;stroke: #000000;stroke-linecap: round;stroke-linejoin: round;stroke-width: 24 } 
	</style>
	<path id="Layer 2" class="s0" d="m20 13c5.6 3.9 12 6.1 17.9 9.5 8.9 5 17.1 12 25.9 17.3 7.3 4.3 14.6 6.9 22.3 11.1 5.9 3.2 11.7 6.8 17.5 10.1 0.4 0.3 4.6 1.7 4.7 2.3 0.1 0.4-9.6 4.2-10.3 4.5-7.6 3.1-13.9 7.4-20.9 11.5-16.7 9.6-24.8 18.8-42.1 27.6-2.4 1.2-10.7 7.5-13 8.3-1.1 0.4 0-2.3 0-3.4q0.1-4 0.1-8c0.2-6.7 0.8-15.9 0.6-22.6-1-22.5-3-45.2-2.5-67.5"/>
</svg>