<svg version="1.2" xmlns="http://www.w3.org/2000/svg" viewBox="0 0 256 256" width="256" height="256">
	<title>Captures</title>
	<style>
		.s0 { fill: #f02e2e;stroke: #000000;stroke-linecap: round;stroke-linejoin: round;stroke-width: 16 } 
	</style>
	<path id="Layer 6" fill-rule="evenodd" class="s0" d="m30.1 11.6c6.9 4.4 11.1 10 15.8 14 11.3 9.4 20.9 20.4 31.1 30.9 18.5 19.2 37.5 39.1 55.7 58.6 23.5 25.2 45.2 50.7 71.6 73.1 4.3 3.6 8.6 7.3 13 10.7 7.3 5.8 39.8 28.3 26.6 42.6-18.3 19.6-50.5-18.5-63.5-29.8-51.1-44.6-92.8-97.9-140.2-146-11.8-11.9-24.2-21.8-29.9-37.6-2.9-8 5.6-21.9 19.3-16.9"/>
</svg>