<svg version="1.2" xmlns="http://www.w3.org/2000/svg" viewBox="0 0 256 256" width="256" height="256">
	<title>New Project</title>
	<style>
		.s0 { fill: #000000;stroke: #000000;stroke-linecap: round;stroke-linejoin: round;stroke-width: 16 } 
	</style>
	<path id="Layer 1" fill-rule="evenodd" class="s0" d="m65.6 42.5c6.7 0 13.5 0.2 20.2 1 0.8 0.1 5.3-0.1 5.5 0.8 2.9 16.7-0.7 36.3-2 53.1-1.4 18.6-1.8 37.7-1.3 56.4 0.4 15 3 29.8 3.7 44.7 0.1 1.3 1.8 13.1 0.7 13.2-10.1 1.2-20.7-2.7-31.1-1.1-1.4 0.2-9.9 2.3-10.9 1.3-0.8-1 0-6.6 0-7.8 0.3-7.9 0.4-15.7 0.4-23.6 0-30.3 1.7-60.6 1.7-90.8 0-13.7-0.6-26.6-2.1-40-0.1-1-0.6-5.9 0.2-6.6 0.5-0.5 12.9-0.6 15-0.6z"/>
	<path id="Shape 1" fill-rule="evenodd" class="s0" d="m166 44.9c3.3-0.4 6.5 0 9.7-0.4 7.3-0.8 14.6 0.9 21.8 0.1 1.5-0.1 6.1-1.4 7.2-0.2 1 1.1 0 5.7-0.2 7-0.6 5.6-0.8 11.3-1.4 17-2.1 24-4.6 47.3-4.6 71.5 0 18.3 2.1 36.6 2.1 54.9q0 1 0 2c0 1 1.3 15 0 15.3-7.3 1.4-17.2-3.8-24.8-4.1-3.6-0.2-6.9-0.1-10.3 0.9-0.4 0.1-5.1 2-5.2 1.8-1.3-1.4-0.6-8.3-0.7-10.1-0.9-10-2-19.9-2-29.9-0.1-32.6 2.9-65.8 0.4-98.3-0.6-8.5-0.3-17.5 0-26.1 0-1.3 7.6-1.3 8-1.4z"/>
</svg>