<svg version="1.2" xmlns="http://www.w3.org/2000/svg" viewBox="0 0 1536 512" width="1536" height="512">
	<title>Pieces</title>
	<style>
		.s0 { fill: #ffffff } 
		.s1 { fill: #c7c7c7;stroke: #c7c7c7;stroke-linecap: round;stroke-linejoin: round;stroke-width: 16 } 
		.s2 { fill: none;stroke: #000000;stroke-miterlimit:100;stroke-width: 16 } 
		.s3 { fill: #3d3d3d } 
		.s4 { fill: #212121;stroke: #212121;stroke-linecap: round;stroke-linejoin: round;stroke-width: 16 } 
		.s5 { fill: none;stroke: #c7c7c7;stroke-linecap: round;stroke-linejoin: round;stroke-width: 16 } 
		.s6 { fill: none;stroke: #000000;stroke-linecap: round;stroke-linejoin: round;stroke-width: 16 } 
		.s7 { fill: none;stroke: #212121;stroke-linecap: round;stroke-linejoin: round;stroke-width: 16 } 
	</style>
	<g id="wp">
		<path id="Path 0" class="s0" d="m107 56c-1.9 1-5.5 3.7-8 6-2.5 2.3-5.1 5.3-5.8 6.6-0.6 1.3-1.9 3.6-2.7 5.2-0.9 1.7-1.5 5.4-1.5 10.2 0 6.1 0.5 8.5 2.8 13 1.4 3 3.8 6.8 5.2 8.4 1.4 1.5 3.7 3.4 5.2 4.2 1.6 0.8 3.7 1.4 4.8 1.4 1.1 0 4.3 1.5 7.1 3.3 5.1 3.2 5.1 3.2 2.7 4.2-1.4 0.5-3.3 1.7-4.2 2.5-1 0.9-1.7 2.9-1.6 5.3 0 2.9 0.6 4.2 2.9 6l2.8 2.2c-1.3 24.8-1.9 32.8-2.2 33.8-0.3 0.9-2.1 2.6-4 3.7-1.9 1.1-4.2 3.5-5.1 5.3-0.9 1.7-1.3 4.2-1 5.5 0.4 1.5 0.2 2.2-0.9 2.2-0.8 0-1.6 0.3-1.8 0.8-0.1 0.4-2 2.1-4.2 3.8-2.2 1.7-5.6 3.5-7.5 3.9-1.9 0.4-6.3 2.1-9.8 3.6-3.4 1.6-6.4 3.7-6.7 4.7-0.3 0.9-0.4 5.1-0.2 9.2 0.3 6.7 0.6 7.9 3.3 10.7 1.6 1.8 4 3.5 5.4 3.8 1.4 0.2 5 0.7 8 0.9 3 0.3 11.3 1 18.5 1.7 7.1 0.7 22 1.2 33 1.2 18.4 0 20.4-0.2 25-2.2 2.7-1.2 6.1-2.1 7.5-2.1 1.4 0 3.7-0.8 5.3-2 2.5-1.8 2.8-2.7 3.3-10.2 0.4-5.9 0.2-9.1-0.8-11.1q-1.3-2.8-4.8-3.8c-2.4-0.6-4.4-2.2-6.3-4.9-2.1-3.2-4.8-5-13-9-5.6-2.7-10.7-5-11.2-5-0.6 0-1.9-0.8-3-1.6-1.3-1-2.3-3.3-2.7-6.7-0.5-2.9-1-6-1.3-6.9-0.3-1.1 0-1.8 0.8-1.8 0.6 0 1.5-1.2 1.9-2.7 0.4-1.6 0.2-6-0.3-9.8-0.5-3.9-1.4-8.5-1.9-10.2l-1-3.3c6.7 0 8.7-0.7 10-2 1.4-1.4 2-3.4 2-6.7 0.1-4.5-0.1-4.9-3.2-6.2-1.8-0.8-3.4-1.5-3.6-1.5-0.1-0.1 2.3-2.9 5.5-6.3 3.2-3.4 6.5-7.7 7.4-9.5 0.9-1.8 2.1-4.9 2.7-6.8 0.7-1.9 1.2-7.6 1.2-12.5 0-5-0.6-10.6-1.3-12.6-0.6-2-2.1-4.7-3.2-5.9-1.1-1.2-5.6-4-10-6.1-4.9-2.4-10.5-4.3-14.5-4.9-3.6-0.5-9.9-0.9-14-0.9-5.4 0-8.5 0.5-11 1.9z"/>
		<path id="Layer 8" fill-rule="evenodd" class="s1" d="m161.2 221.1c-2.6-7.5-4.5-15.2-7.5-22.7-4.5-11.3-12.8-26.4-12.8-38.9m19.8 40.2c0.8 0.8 1.6 1.5 2.1 2.4 2.6 4.2 4.9 8.9 6.9 13.4 0.4 0.9 2 3 1.8 7.5zm-2.7-5.8l2.7 5.8c-1.3-1.3-2.5-2.8-2.7-5.8zm14.6 7.4c2 4.5 3.4 6.8 5.4 13.9 1.3 4.7-6-15.2-5.4-13.9zm-30.7-62.5q0.3-0.9 0.7-1.9zm0.7-2l4.5-12.2c-0.3 4-2.9 8.3-4.5 12.2zm4.2-77c2.2 11.6 7.1 23.5 5.1 39.6-0.6 4.8-2.6 8.9-4.3 13.3-0.3 0.9-1.6 2.7-1.7 3.7 0-3.4 0.9-56.6 0.9-56.6zm-0.9 56.6q-0.1 0.3-0.1 0.1 0 0 0.1-0.1z"/>
		<path id="Layer 6" fill-rule="evenodd" class="s2" d="m74.3 225.5c3 0.3 6 0.5 9 0.7 9.3 0.5 18.9 0.3 28.3 0.3 17.7 0 36.8-0.9 54.4 1 1.7 0.2 17.1 0.3 17.8-0.5 0.4-0.6 0.3-5.8 0.3-6.9 0-6.4 3.7-18.6-2-23.1-4.6-3.6-12.2-3.8-17-7-15.4-10.3-22.7-20.5-25.1-39.5-0.3-1.8-1.6-9.6-0.3-10.9 3-2.8 12.7 1.2 15.6-1.8 2.6-2.8-6.4-13.6-7.7-15.7-0.4-0.7-3.2-2.6-2.6-3.1 0.9-0.8 4.9-2 6-3 3.4-3 7.1-6 9-10 9.4-19.3 3.5-42.1-17-51-23.3-10.2-50.8-0.1-53 28-1 12.7 5 24.5 14.9 31.5 1.5 1.1 8.8 3.9 9.1 4.5 0.9 1.7-9.4 9.7-11 11-0.4 0.3-5.6 5-4.8 6.5 1.3 2.3 13.6 1.9 15.8 1.9 0.4 0 1.1 0.6 1.2 1.1 2.8 13.6-5.4 41.3-16.6 49.9-6.3 4.8-19 1.3-23.6 6.9-5.2 6.2-1.3 29.1-0.7 29.2z"/>
	</g>
	<g id="bp">
		<path id="Path 0" class="s3" d="m107.2 311.7c-1.9 1-5.5 3.8-8 6.1-2.5 2.3-5.1 5.3-5.8 6.6-0.6 1.3-1.9 3.6-2.7 5.1-0.9 1.8-1.5 5.5-1.5 10.3 0 6.1 0.5 8.5 2.7 13 1.5 3 3.9 6.7 5.3 8.3 1.4 1.6 3.7 3.5 5.2 4.3 1.6 0.7 3.7 1.4 4.8 1.4 1.1 0 4.3 1.4 7.1 3.2 5.1 3.2 5.1 3.3 2.7 4.3-1.4 0.5-3.3 1.6-4.2 2.5-1 0.9-1.7 2.9-1.6 5.2 0 2.9 0.6 4.3 2.9 6l2.8 2.3c-1.3 24.8-1.9 32.7-2.2 33.7-0.3 1-2.1 2.7-4 3.8-1.9 1.1-4.2 3.4-5.1 5.2-0.9 1.8-1.3 4.3-1 5.5 0.4 1.6 0.2 2.3-0.9 2.3-0.8 0-1.6 0.3-1.8 0.7-0.1 0.4-2 2.2-4.2 3.9-2.2 1.7-5.6 3.4-7.5 3.9-1.9 0.4-6.3 2-9.8 3.6-3.4 1.6-6.4 3.6-6.7 4.6-0.3 1-0.4 5.1-0.2 9.3 0.3 6.6 0.6 7.8 3.3 10.7 1.6 1.8 4 3.5 5.4 3.7 1.4 0.3 5 0.7 8 1 3 0.2 11.3 1 18.5 1.7 7.1 0.7 22 1.2 33 1.2 18.4 0 20.4-0.2 25-2.2 2.7-1.2 6.1-2.2 7.5-2.1 1.4 0 3.7-0.9 5.2-2 2.6-1.9 2.8-2.8 3.4-10.3 0.4-5.8 0.2-9.1-0.8-11.1q-1.3-2.8-4.8-3.7c-2.4-0.7-4.4-2.3-6.3-5-2.1-3.1-4.8-5-13-8.9-5.6-2.8-10.7-5-11.2-5.1-0.6 0-1.9-0.7-3-1.5-1.3-1-2.3-3.4-2.7-6.8-0.5-2.8-1-5.9-1.3-6.9-0.3-1 0-1.7 0.7-1.7 0.7 0 1.6-1.2 2-2.8 0.4-1.5 0.2-5.9-0.3-9.7-0.5-3.9-1.4-8.5-1.9-10.3l-1-3.2c6.7 0 8.7-0.7 10-2 1.4-1.5 2-3.4 2-6.8 0.1-4.4-0.1-4.8-3.2-6.2-1.8-0.7-3.4-1.4-3.6-1.5-0.1 0 2.3-2.8 5.5-6.2 3.2-3.4 6.5-7.7 7.4-9.5 0.9-1.8 2.1-4.9 2.7-6.8 0.7-2 1.2-7.6 1.2-12.5 0-5-0.6-10.7-1.3-12.7-0.6-2-2.1-4.6-3.2-5.8-1.1-1.2-5.6-4-10-6.2-4.9-2.4-10.5-4.3-14.5-4.9-3.6-0.5-9.9-0.9-14-0.9-5.4 0-8.5 0.6-11 1.9z"/>
		<path id="Layer 8" fill-rule="evenodd" class="s4" d="m160.8 476.6c-2.6-7.5-4.5-15.1-7.5-22.6-4.6-11.3-12.8-26.5-12.8-39m19.7 40.3c0.8 0.8 1.6 1.5 2.2 2.4 2.6 4.2 4.9 8.8 6.9 13.3 0.3 0.9 2 3 1.8 7.5zm-2.7-5.7l2.7 5.7c-1.3-1.2-2.5-2.7-2.7-5.7zm14.5 7.3c2.1 4.5 3.5 6.8 5.5 14 1.3 4.6-6-15.2-5.5-14zm-30.6-62.4q0.3-1 0.7-2zm0.7-1.9l4.5-12.2c-0.4 4-2.9 8.2-4.5 12.2zm4.1-77c2.3 11.6 7.1 23.5 5.2 39.6-0.6 4.7-2.7 8.8-4.3 13.2-0.3 1-1.7 2.7-1.8 3.8 0.1-3.5 0.9-56.6 0.9-56.6zm-0.9 56.6q0 0.2 0 0.1 0-0.1 0-0.1z"/>
		<path id="Layer 6" fill-rule="evenodd" class="s2" d="m74.5 481.2c3 0.3 6 0.6 9 0.7 9.3 0.5 18.9 0.4 28.3 0.4 17.7 0 36.7-0.9 54.4 1 1.7 0.2 17.1 0.3 17.8-0.6 0.4-0.6 0.3-5.7 0.3-6.9 0-6.3 3.7-18.5-2-23-4.6-3.7-12.2-3.8-17-7.1-15.4-10.2-22.7-20.4-25.1-39.5-0.3-1.7-1.6-9.6-0.3-10.8 3-2.8 12.7 1.2 15.6-1.9 2.6-2.7-6.4-13.6-7.7-15.6-0.4-0.7-3.2-2.6-2.6-3.1 0.9-0.8 4.9-2 6-3 3.4-3 7.1-6 9-10 9.4-19.4 3.5-42.1-17-51-23.3-10.2-50.8-0.1-53 28-1 12.7 5 24.4 14.9 31.5 1.5 1.1 8.8 3.9 9.1 4.5 0.9 1.6-9.4 9.7-11 11-0.4 0.3-5.6 5-4.8 6.5 1.3 2.3 13.6 1.8 15.8 1.8 0.4 0 1.1 0.6 1.2 1.1 2.8 13.6-5.4 41.3-16.6 50-6.3 4.8-19 1.2-23.6 6.9-5.2 6.1-1.3 29.1-0.7 29.1z"/>
	</g>
	<g id="wn">
		<path id="Path 0" class="s0" d="m356.3 55.4c-1.5 1.9-4.2 5.4-5.9 7.8-1.6 2.4-4.3 6.1-6 8.3-1.6 2.2-4.4 6.5-6.3 9.5-1.8 3-5.3 9.5-7.7 14.5-2.5 4.9-5.6 11.3-7.1 14-1.5 2.8-4.3 7.3-6.3 10-2 2.8-4.2 6-4.8 7.3-0.7 1.2-1.2 4-1.2 6.2 0 2.9 0.7 4.8 2.7 7.2 1.6 1.7 4.6 4 6.8 4.9 2.5 1.2 6.4 1.9 10.2 1.9h6.3c13.9-13.1 16.5-14.9 20.5-15.9 2.7-0.7 6.2-2.1 7.7-3.2 1.6-1 3-1.9 3.3-1.9 0.3 0 2.2-1.1 4.2-2.5 3-1.9 4.1-2.2 5.1-1.2q1.3 1.2 1.2 9.5c0 5.6-0.7 10.1-2.1 14.5-1.2 3.4-3.6 8.9-5.3 12.2-1.7 3.3-5.1 8-7.6 10.6-2.5 2.5-7.7 7.1-11.5 10.1-3.9 3-8.7 7.4-10.8 9.9-2.1 2.4-4.7 6-5.7 7.9-0.9 1.9-2.6 4.2-3.5 5-1 0.8-2.9 3.9-4.2 6.8-1.3 2.9-2.3 7.1-2.3 9.5 0.1 3.5 0.7 4.8 3.8 7.9 3.2 3.2 4.4 3.7 8.2 3.7 2.5 0 5.4-0.6 6.5-1.4 1.1-0.9 3.3-1.5 4.8-1.5 1.7 0 3.8-1 5.2-2.5l2.5-2.5c88.1-0.7 90.7-0.8 94.5-2.7 2.2-1.1 4.6-3.2 5.2-4.6 1-2.1 1-4 0.2-8.4-0.6-3.2-1.8-7-2.5-8.5-0.8-1.6-2.8-3.5-4.4-4.3-1.7-0.8-3.9-1.5-5-1.5-1.6 0-2-0.7-2-3 0-2-1.1-4.3-3.3-6.7-1.8-2.1-4.7-5.6-6.3-7.8-1.7-2.2-3.6-5.4-4.3-7q-1.2-3-0.8-13c0.3-5.5 1.2-15 2.1-21 0.8-6.1 1.5-17.2 1.6-24.8 0-7.5-0.4-15.8-1-18.4-0.6-3.2-2.3-6.4-4.8-9.3-2.1-2.5-5.7-5.3-8-6.2-2.3-1-7.5-2.5-11.5-3.3-3.9-0.8-9.2-2-11.7-2.6-2.5-0.7-5.4-1.5-6.5-1.9-1.1-0.4-4.9-2-8.4-3.6-4.2-1.9-7.6-4.4-10-7.2-3.1-3.6-4.2-4.3-7.3-4.2-2.9 0-4.2 0.7-6.5 3.4z"/>
		<g id="Folder 1">
			<path id="Layer 14" class="s5" d="m337.6 148.7c2-3.1 1.3-8.3 4.2-11.3 2.9-2.9 7.6-2.5 11.5-2.4"/>
			<path id="Layer 14" class="s5" d="m351.7 56.2c2.1-7.4 12.4-4.8 17.5-1.8 1.9 1.1 9.1 5.4 11.3 5.6"/>
			<path id="Layer 14" class="s5" d="m399.4 66.2c5.4 6.5 11.8 15 13.7 25.6 4.5 26.3-1 47.6 9.1 73.3 5.4 13.7 12.8 25 12.8 40.2 0 3.2-0.4 12.6-2.3 15.4"/>
			<path id="Layer 14" class="s5" d="m446.1 219.5c2.3-0.8 2.3-6.3 2.3-8.2 0-7.7-3.7-14.9-4.3-22.6"/>
			<path id="Layer 14" class="s5" d="m423.6 82.4c0 8.4 0.7 16.6 2.3 24.8"/>
		</g>
		<path id="Layer 11" class="s6" d="m380.9 119.9c-6.4 16.5-23.2 12.6-35.4 19.8-4 2.3-3.8 10.6-9.4 11.4-4.1 0.6-24.6-6-26.8-9.4-1.4-2.1-1.5-6.2-1.4-8.7 0.4-11.5 16.4-20.4 20.6-30.8 3.4-8.5 4.5-18.5 8.6-26.6 2.8-5.5 8.9-9 11.2-14.8 1.6-4.1 3.7-14.9 9.4-15.1 9.9-0.4 19 13.7 28.3 16.7 10.3 3.4 20.2 1.6 29.8 8.1 6.7 4.6 12.1 9.8 14.9 17.1"/>
		<path id="Layer 11" class="s6" d="m380.5 119.9c1.3 0.7-0.3 4.8-0.4 5.9-0.9 6.5-2.5 13.7-4.6 20-5.4 16.5-17 29.3-30 40.3-5.3 4.5-11.4 8.2-15.2 14.1-3.5 5.3-10.3 20.6-1.3 24.2 13.7 5.6 34.4 1.4 48.8 1.4 15.1 0 30.2-0.4 45.2-0.4 4.7 0 13.6 0.1 18.5-0.5 6.1-0.8 12.2 0.3 15.4-5 11.8-20.1-11.7-35.1-21.3-46-4.8-5.3-6.4-12.3-7.7-19-2.7-13.5 0.5-26.5 3.2-39.5 3.4-16.2 0.4-25 0.4-25"/>
		<path id="Layer 12" class="s6" d="m363 90.3l1.2-0.6"/>
	</g>
	<g id="bn">
		<path id="Path 0" class="s3" d="m356.3 311.4c-1.5 1.9-4.2 5.4-5.9 7.8-1.6 2.4-4.3 6.1-6 8.3-1.6 2.2-4.4 6.5-6.3 9.5-1.8 3-5.3 9.5-7.7 14.5-2.5 4.9-5.6 11.3-7.1 14-1.5 2.8-4.6 7.7-6.9 11-2.4 3.3-4.8 6.6-5.4 7.3-0.5 0.6-1 3-1 5.2 0 3.1 0.7 4.8 3.2 7.6 1.8 2 5.1 4.5 7.3 5.5 2.5 1.2 6.3 1.9 10.2 1.9h6.3c13.9-13.1 16.5-14.9 20.5-15.9 2.7-0.7 6.2-2.1 7.7-3.2 1.6-1 3-1.9 3.3-1.9 0.3 0 2.2-1.1 4.2-2.5 3-1.9 4.1-2.2 5.1-1.2 0.8 0.8 1.3 3.9 1.2 9q0 7.7-2.1 14c-1.2 3.4-3.6 8.9-5.3 12.2-1.7 3.3-5.1 8-7.6 10.6-2.5 2.5-7.7 7.1-11.5 10.1-3.9 3-8.7 7.4-10.8 9.9-2.1 2.4-4.7 6-5.7 7.9-0.9 1.9-2.6 4.2-3.5 5-1 0.8-2.9 3.9-4.2 6.8-1.4 3.2-2.3 7.1-2.3 10 0.1 4.1 0.6 5.2 3.8 8.4 3.2 3.2 4.3 3.7 8.5 3.8 3 0 5.4-0.6 6.3-1.5 0.9-0.8 2.9-1.5 4.5-1.5 1.6 0 4.2-1.1 5.9-2.5l3-2.5c69.4-0.6 90.4-1.2 91.5-1.6 1.1-0.4 3.2-1.6 4.7-2.6 1.6-1 3.3-3 3.8-4.5 0.8-2 0.7-4.4-0.1-8.3-0.6-3-1.8-6.7-2.5-8.2-0.8-1.6-2.8-3.5-4.4-4.3-1.7-0.8-3.9-1.5-5-1.5-1.6 0-2-0.7-2-3 0-2-1.1-4.3-3.3-6.7-1.8-2.1-4.7-5.6-6.3-7.8-1.7-2.2-3.6-5.4-4.3-7q-1.2-3-0.8-13c0.3-5.5 1.2-15 2.1-21 0.8-6.1 1.5-17.2 1.6-24.7 0-7.6-0.4-15.9-1-18.5-0.6-3.2-2.3-6.4-4.8-9.3-2.1-2.5-5.7-5.3-8-6.2-2.3-1-7.5-2.5-11.5-3.3-3.9-0.8-9.2-2-11.7-2.6-2.5-0.7-5.4-1.5-6.5-1.9-1.1-0.4-4.9-2-8.4-3.6-4.2-1.9-7.6-4.4-10-7.2-3.2-3.8-4.1-4.3-7.8-4.2-3.4 0-4.6 0.6-7 3.4z"/>
		<g id="Folder 1">
			<path id="Layer 14" class="s7" d="m337.6 404.9c2-3.1 1.3-8.4 4.2-11.3 2.9-2.9 7.6-2.5 11.5-2.4"/>
			<path id="Layer 14" class="s7" d="m351.7 312.4c2.1-7.4 12.4-4.9 17.5-1.8 1.9 1.1 9.1 5.4 11.3 5.6"/>
			<path id="Layer 14" class="s7" d="m399.4 322.3c5.4 6.6 11.8 15 13.7 25.7 4.5 26.2-1 47.6 9.1 73.3 5.4 13.7 12.8 25 12.8 40.2 0 3.2-0.4 12.5-2.3 15.3"/>
			<path id="Layer 14" class="s7" d="m446.1 475.7c2.3-0.8 2.3-6.3 2.3-8.2 0-7.7-3.7-15-4.3-22.6"/>
			<path id="Layer 14" class="s7" d="m423.6 338.6c0 8.3 0.7 16.6 2.3 24.8"/>
		</g>
		<path id="Layer 11" class="s6" d="m380.9 376.1c-6.4 16.4-23.2 12.5-35.4 19.7-4 2.4-3.8 10.7-9.4 11.5-4.1 0.6-24.6-6-26.8-9.4-1.4-2.1-1.5-6.3-1.4-8.7 0.4-11.6 16.4-20.4 20.6-30.8 3.4-8.6 4.5-18.5 8.6-26.6 2.8-5.5 8.9-9 11.2-14.8 1.6-4.1 3.7-15 9.4-15.2 9.9-0.3 19 13.8 28.3 16.8 10.3 3.4 20.2 1.5 29.8 8.1 6.7 4.6 12.1 9.7 14.9 17"/>
		<path id="Layer 11" class="s6" d="m380.5 376.1c1.3 0.7-0.3 4.8-0.4 5.9-0.9 6.5-2.5 13.7-4.6 20-5.4 16.5-17 29.2-30 40.3-5.3 4.4-11.4 8.2-15.2 14.1-3.5 5.3-10.3 20.6-1.3 24.2 13.7 5.6 34.4 1.4 48.8 1.4 15.1 0 30.2-0.4 45.2-0.4 4.7 0 13.6 0 18.5-0.6 6.1-0.7 12.2 0.4 15.4-4.9 11.8-20.1-11.7-35.1-21.3-46-4.8-5.3-6.4-12.3-7.7-19.1-2.7-13.5 0.5-26.5 3.2-39.4 3.4-16.2 0.4-25.1 0.4-25.1"/>
		<path id="Layer 12" class="s6" d="m363 346.5l1.2-0.6"/>
	</g>
	<g id="wb">
		<path id="Path 0" class="s0" d="m635.3 49.3c-1.6 1.7-2.2 4-2.6 9.7-0.3 4.1-0.9 9.3-1.4 11.5-0.8 3.7-1.2 4.1-5.8 5.6-2.8 0.8-6.6 2.6-8.5 3.9-1.9 1.4-5.9 4.7-8.8 7.5-3.2 2.9-6.7 7.7-8.7 11.5-1.8 3.6-4.5 10.8-5.9 16-2.3 8.5-2.6 11.3-2.6 26.8 0 9.4 0.4 18.3 1 19.7 0.5 1.4 2.5 4.4 4.3 6.6 1.7 2.3 5 6.1 7.2 8.6 2.2 2.4 5.6 5.2 7.5 6.2 1.9 0.9 5.1 2.5 7 3.5l3.5 1.8c-4.7 2.2-7.7 3.4-9.7 4.1-3.2 1-4 1-5.5-0.5-1-1-2.6-1.8-3.6-1.8-0.9 0-3.7 0.6-6.2 1.3-2.5 0.6-6.3 2.8-8.5 4.7-2.5 2.2-3.9 4.4-4 6 0 1.4-1.3 3.8-2.8 5.3-1.6 1.7-2.7 3.9-2.7 5.6 0 1.5 0.7 3.6 1.5 4.5 0.8 1 3.1 2.1 5 2.6 1.9 0.5 16.8 1.2 33 1.5 16.2 0.3 40.1 1 53 1.5 12.9 0.5 24.6 0.7 26 0.3 1.4-0.3 3.5-1.2 4.7-2 1.8-1 2.3-2.2 2.3-5.3 0-2.2-0.9-5.9-1.9-8.2-1.1-2.4-3.4-5.9-5.3-7.9-1.8-1.9-6.7-5.2-10.8-7.2-4.1-2-10.2-4.3-13.5-5.2-3.3-0.8-7.6-1.5-9.5-1.6-1.9 0-4.4-0.4-5.5-0.8-1.7-0.6-1.1-1.2 3.5-3.3 3-1.5 8.3-5.3 11.8-8.7 3.4-3.4 7.1-7.6 8.2-9.3 1.1-1.8 2-4.2 2-5.3 0-1.1 0.9-4.5 1.9-7.5 1-3 2.4-7.7 3.1-10.5 0.6-2.7 1.4-9.1 1.7-14 0.5-8.2 0.3-9.6-2.2-16-2.2-5.6-4.2-8.3-9.4-13.5-3.7-3.6-8.5-7.4-10.6-8.6-2.2-1.2-5.6-2.9-7.5-4-1.9-1-5-3.2-6.8-4.9-1.9-1.7-3.7-4.7-4.3-7-0.6-2.2-0.8-7.6-0.5-12 0.6-7 0.4-8.3-1.4-10.7-1.6-2.2-2.8-2.8-5.8-2.8-2.7 0-4.5 0.7-5.9 2.3z"/>
		<path id="Layer 17" class="s5" d="m652 187.3c2.1 5.8 13.6 9.7 18.2 12.2 10.3 5.5 18.7 13.9 25.4 23.3"/>
		<path id="Layer 17" class="s5" d="m678.3 192.9c4.5 5.1 11.4 9.1 17 12.8 1.8 1.2 5.5 2.8 6.3 5.1"/>
		<path id="Layer 17" class="s5" d="m651.9 185.3c8.6-0.5 18.8-14 21.6-21.4 5.6-15 5.3-29.2 0.8-44.4-1.4-4.7-7.5-15.1-12.2-17.4-0.5-0.3-5.8 2.4-6.6 2.9-6.5 3.5-12.2 11.2-16.4 18.5"/>
		<path id="Layer 17" class="s5" d="m667.4 94.9c1 3.4 3.6 6.4 5.5 9.4 3.5 5.7 6.4 12 9.3 18.1 4.8 9.7 5.8 21.5 5.7 32.1"/>
		<path id="Layer 17" class="s5" d="m600.8 99c0.9-2.4 6.8-6.8 8.8-7.9 8.4-4.8 7.3-4.8 20-9.2 0.9-0.3 13.7-2 14.3-1.2 0.7 0.8-0.7 5.7-0.9 6.9-0.9 6.4-5.1 16.8-5.1 23.2"/>
		<path id="Layer 17" class="s5" d="m638.1 46.8c1.5 0.1 4.8 1.5 6.1 2.2 2.7 1.3 5.1 5 7.9 6"/>
		<path id="Shape 1" class="s6" d="m578.1 224.8c2.8 0 19-0.5 44.9 0.6 2.1 0.1 22.5 0.4 26.6 0.2 12.8-1 25.9 0 38.8 0q7.4 0 14.9 0c0.3 0 1.6 0.2 1.7-0.3 3.8-18.6-7.1-32.9-25-36.5-6.2-1.3-12.9-1.4-19.2-1.4q-3.3 0-6.5 0c-1.1 0-4.6 0-3.4 0 33.3 0 50-45.6 37.5-72.4-4-8.6-9.6-15.6-16.2-22.2-1.3-1.3-5.4-6-7.2-5.9-11 1.1-17.7 17.2-23.1 25.4-1.3 2-3.8 9.5-4.2 12.5-0.1 0.8-0.8-7.2-0.6-8.2 0.5-3.7 1-7.1 2.4-10.5 4.3-11.2 11.2-18.7 18.3-27.7-0.1-0.9-6.9-5.4-7.9-5.9-6.4-2.9-16.3-3.3-17.5-12.4-0.7-5.3 0.3-11 5.4-13.9 4.7-2.7 14.8-0.1 15.5 5.7 2.7 21.1-25.9 18.4-39.7 30.9-25.9 23.5-31.8 52.8-18.9 84.4 3.5 8.5 9.4 15.1 18.5 17.1 1.8 0.4 12.3 1.6 13.5 3.1 0.2 0.3-10.5 1-11.3 1-7.2 0-13.7 2.3-20.6 3.5-15.8 2.7-16.8 20.1-17 32.9"/>
	</g>
	<g id="bb">
		<path id="Path 0" class="s3" d="m635 305c-2 1.8-2.3 2.9-2.2 8 0.1 3.3-0.6 8.7-1.6 12-1.4 5-2.1 6.2-4.2 6.6-1.4 0.3-4 1.2-5.8 2-1.7 0.8-3.8 1.8-4.5 2.4-0.6 0.5-3.7 3-6.7 5.6-3 2.6-7.1 7.4-9.1 10.8-2 3.3-4.9 10.1-6.5 15.1-2.6 8.4-2.9 10.3-3.2 28-0.2 11.1 0.1 20.5 0.7 22.5 0.5 1.9 2 4.6 3.3 6 1.3 1.4 4.2 5 6.5 8 3.2 4.3 5.7 6.3 11.2 9 6.1 3 6.9 3.7 5.3 4.6-0.9 0.7-3.6 1.8-5.9 2.5-3.8 1.3-4.4 1.2-6-0.3-1-1-2.6-1.8-3.6-1.8-0.9 0-3.8 0.6-6.3 1.3-2.6 0.6-6.3 2.8-8.5 4.7-2.6 2.4-3.8 4.4-3.9 6.3 0 1.7-0.9 3.3-2.4 4.5-1.4 0.9-2.7 3-3.1 4.7-0.3 1.7 0 4.1 0.8 5.5 0.7 1.4 2.8 3 4.7 3.7 2.2 0.7 15.1 1.4 33.5 1.7 16.5 0.4 41 1.1 54.5 1.6 24.4 1 24.5 1 28.8-1.3 4.1-2.1 4.2-2.4 4.2-6.9 0-2.7-0.5-4.8-1-4.8-0.6 0-1.2-1.1-1.5-2.5-0.3-1.4-1.5-3.7-2.8-5.2-1.3-1.6-2.6-3.5-2.9-4.3-0.3-0.8-1.6-2-2.9-2.7-1.3-0.6-5.3-2.5-8.9-4.2-3.6-1.7-9.2-3.7-12.5-4.6-3.3-0.8-7.7-1.5-9.8-1.5-2 0-3.9-0.5-4.2-1-0.3-0.6 0.3-1.3 1.2-1.6 1-0.3 2.9-1.1 4.2-1.7 1.3-0.7 5.2-3.9 8.6-7.2 3.4-3.3 7.2-7.6 8.4-9.5 1.1-1.9 2.1-4.5 2.1-5.7 0-1.3 0.4-3.2 1-4.3 0.5-1.1 1.9-5.5 3-9.8 1.1-4.2 2.3-12.4 2.7-18.2l0.6-10.5c-6.6-13.9-8.6-16.6-13.6-21-3.4-3-7.8-6.3-9.7-7.3-1.9-1-4.6-2.5-6-3.3-1.4-0.8-3.9-2.3-5.5-3.5-1.7-1.2-3.9-3.4-5-5-1.7-2.5-2-4.6-2-14.6 0-10.5-0.2-11.9-2-13.2-1.1-0.9-3.6-1.6-5.6-1.6-2.1 0-4.4 0.8-5.9 2z"/>
		<path id="Layer 17" class="s7" d="m652 443.8c2.1 5.8 13.6 9.7 18.2 12.2 10.3 5.5 18.7 13.9 25.4 23.3"/>
		<path id="Layer 17" class="s7" d="m678.3 449.4c4.5 5.1 11.4 9.1 17 12.8 1.8 1.2 5.5 2.8 6.3 5.1"/>
		<path id="Layer 17" class="s7" d="m651.9 441.8c8.6-0.5 18.8-14 21.6-21.4 5.6-15 5.3-29.2 0.8-44.4-1.4-4.7-7.5-15.1-12.2-17.4-0.5-0.3-5.8 2.4-6.6 2.9-6.5 3.5-12.2 11.2-16.4 18.5"/>
		<path id="Layer 17" class="s7" d="m667.4 351.4c1 3.4 3.6 6.4 5.5 9.4 3.5 5.7 6.4 12 9.3 18.1 4.8 9.7 5.8 21.5 5.7 32.1"/>
		<path id="Layer 17" class="s7" d="m600.8 355.5c0.9-2.4 6.8-6.8 8.8-7.9 8.4-4.8 7.3-4.8 20-9.2 0.9-0.3 13.7-2 14.3-1.2 0.7 0.8-0.7 5.7-0.9 6.9-0.9 6.4-5.1 16.8-5.1 23.2"/>
		<path id="Layer 17" class="s7" d="m638.1 303.3c1.5 0.1 4.8 1.5 6.1 2.2 2.7 1.3 5.1 5 7.9 6"/>
		<path id="Shape 1" class="s6" d="m578.1 481.3c2.8 0 19-0.5 44.9 0.6 2.1 0.1 22.5 0.4 26.6 0.2 12.8-1 25.9 0 38.8 0q7.4 0 14.9 0c0.3 0 1.6 0.2 1.7-0.3 3.8-18.6-7.1-32.9-25-36.5-6.2-1.3-12.9-1.4-19.2-1.4q-3.3 0-6.5 0c-1.1 0-4.6 0-3.4 0 33.3 0 50-45.6 37.5-72.4-4-8.6-9.6-15.6-16.2-22.2-1.3-1.3-5.4-6-7.2-5.9-11 1.1-17.7 17.2-23.1 25.4-1.3 2-3.8 9.5-4.2 12.5-0.1 0.8-0.8-7.2-0.6-8.2 0.5-3.7 1-7.1 2.4-10.5 4.3-11.2 11.2-18.7 18.3-27.7-0.1-0.9-6.9-5.4-7.9-5.9-6.4-2.9-16.3-3.3-17.5-12.4-0.7-5.3 0.3-11 5.4-13.9 4.7-2.7 14.8-0.1 15.5 5.7 2.7 21.1-25.9 18.4-39.7 30.9-25.9 23.5-31.8 52.8-18.9 84.4 3.5 8.5 9.4 15.1 18.5 17.1 1.8 0.4 12.3 1.6 13.5 3.1 0.2 0.3-10.5 1-11.3 1-7.2 0-13.7 2.3-20.6 3.5-15.8 2.7-16.8 20.1-17 32.9"/>
	</g>
	<g id="wr">
		<path id="Path 0" class="s0" d="m883.3 49.3c-1.1 1.2-2.5 3.8-3.2 5.7-0.6 1.9-1.1 6.4-1.1 10 0 3.6-0.4 7-0.8 7.6-0.4 0.6-1.6 1.6-2.7 2.2-1.3 0.6-3.6 0.7-6.5 0.2-2.8-0.5-5.2-1.7-6.3-3.2-1-1.3-2.1-3.4-2.3-4.8-0.3-1.4-1.2-4.4-2-6.7-1-3.2-2.2-4.6-4.7-5.7-1.7-0.8-3.9-1.1-4.7-0.8-0.8 0.2-3 1.9-4.7 3.6-2.3 2.1-3.8 5-4.9 9.1-1.2 4.6-1.5 8.9-1.1 18 0.2 6.6 0.8 12.8 1.3 13.9 0.5 1 2.2 2.7 3.9 3.7 1.6 1 4.1 2.9 5.5 4.2 1.4 1.3 4.9 3.5 7.8 4.8 5.2 2.4 5.3 2.5 5.4 6.9 0 2.5 0 7-0.1 10-0.1 3-0.4 7.5-0.6 10-0.2 2.5-0.7 7.9-1.1 12-0.3 4.1-1.7 12.7-3.1 19-1.4 6.3-2.9 13.1-3.2 15-0.4 1.9-1 3.9-1.3 4.5-0.3 0.5-2.1 1.3-3.9 1.7-1.9 0.5-5.2 1.7-7.4 2.9-2.2 1.2-5 3.3-6.2 4.8-1.2 1.4-2.2 3.6-2.3 4.9 0 1.2-1.2 3.3-2.7 4.6-2.1 1.8-2.8 3.4-2.8 6 0 1.9 0.7 4.2 1.5 5.1 0.8 0.8 4 2.2 7 3 3.9 1.1 12 1.7 27.5 2 12.1 0.2 33.7 0.7 48 1.1 14.3 0.3 28.3 0.7 31 0.9 2.7 0.1 7.2-0.2 10-0.7 2.7-0.6 5.8-1.7 6.9-2.6 1-1 2.4-3.1 3.1-4.7 0.8-1.9 1.1-4.5 0.7-7-0.4-2.3-1.9-5.8-3.5-7.8-1.5-2-5.3-5.2-8.4-6.9-3.2-1.8-7.6-4-9.8-4.8l-4-1.6c-1-18.5-1.8-26.8-2.4-30.4-0.6-3.6-2-14.4-3.2-24-1.2-9.6-2-18.2-1.7-19 0.3-0.8 2.5-2.5 4.9-3.7 2.4-1.2 6.7-4.6 9.5-7.5 2.8-2.9 5.7-6.4 6.4-7.8 0.7-1.4 2.2-5.2 3.2-8.5 1-3.3 2.1-10.5 2.4-16l0.6-10c-4.8-6.6-7.9-9.2-9.9-10.1-2.4-1-5.1-1.4-7.3-1-1.9 0.3-4.5 1.6-5.8 2.9-1.3 1.2-3.8 4.9-5.7 8.2-1.9 3.3-4.6 7.4-6.2 9.2-1.8 2.1-3.9 3.3-5.8 3.5-2.5 0.3-3-0.1-3.3-2.2-0.1-1.4-0.9-5.4-1.7-9-1.1-4.8-2.4-7.6-5.2-10.8-2.7-3.1-5-4.6-7.8-5.2-2.2-0.5-6.1-1-8.6-1-3.5 0-5 0.5-6.6 2.3z"/>
		<path id="Layer 21" class="s5" d="m928.8 185.6c1.5 4.5 9.1 8.9 12.2 12 5.9 5.7 12 16 14.6 23.8"/>
		<path id="Layer 21" class="s5" d="m949.9 194.2c2.7 7.7 11.9 12.9 12.4 21.8"/>
		<path id="Layer 21" class="s5" d="m922.4 117.1c0.5 3.9 4.2 9.9 5.3 13.7 2.7 10.2 4.7 18 6.3 28.4 0.6 4 1.7 9.6 2.3 13.6 0.1 0.6 0.9 2.8 0 3"/>
		<path id="Layer 21" class="s5" d="m931.8 59.4c18.5 4.6 21.6 17.5 18.9 34.9-0.4 2.6-4.8 15.3-7.5 16.7"/>
		<path id="Layer 21" class="s5" d="m938.9 54.3c2.8 1.9 5.2 4.9 7.8 7.1 1.1 0.9 3.9 2.4 4.5 3.7"/>
		<path id="Layer 21" class="s5" d="m913 69.5c0.7-2-3.2-8-3.9-8.9-4.6-5.4-15.2-8.4-22.1-8.4"/>
		<path id="Layer 21" class="s5" d="m863.5 66.5c-4.1-11.2-15.3-12.1-22.6-11.3"/>
		<path id="Layer 19" class="s6" d="m826.5 225.9c33.4 0 73.4-0.5 106.8-0.5 8.2 0 16.3 0.5 24.5 0.5 1 0 6.9 0.9 7.8-0.1 1.1-1.2 0.6-7.8 0.6-9.2 0-10.7-3.4-21.2-13.4-26.6-2.5-1.3-10.2-1.8-12-2.9-1.9-3-2.2-13-2.6-16.5-1.8-13.9-3.2-28.2-4.1-42.2-0.2-2.7-1.6-10.1-0.6-12.8 0.4-0.2 12-2.9 15.6-6.9 7.9-8.6 7.5-30.1 7.5-41.3 0-2.3 1.7-9.9 0.2-11.9-1.7-2.2-6.4-3.7-8.9-4.9-2-0.9-15.7-4.9-17.3-2.1-4.8 8.7-0.7 27-15.9 23.7-0.4-0.1-0.6-1.3-0.6-1.7-1.4-7.8-1.4-16-3-23.7-0.2-0.7-5.8-0.9-6.6-0.9-5.9 0-18.1-3.4-23-0.4-3.9 2.4-0.7 25.5-3.6 26.6-20.4 7.5-11.7-17.3-19-23-1.3-0.9-19.3 4-21 5.9-2.2 2.5-0.9 10.1-0.9 13.3 0 11.4-0.5 30.8 7.8 39.8 5.1 5.6 13.6 4.4 15.6 8.9-0.5 16.5-2.8 38.7-5.2 55-0.4 3.2-0.7 11.5-2.1 14.5-4.8 3.8-15.1 2.8-20.5 8.5-7.4 7.7-6.8 21.2-6.8 31.2"/>
		<path id="Layer 19" class="s6" d="m857.4 114.4c2.3 0.1 4.6 0.6 6.9 0.6 0.5 0.1 2.2-0.2 2.5 0.3"/>
		<path id="Layer 19" class="s6" d="m934.3 115.5c-4.2 0-8.3 1-12.5 1"/>
		<path id="Layer 19" class="s6" d="m847.1 188.8c3.9-0.8 9.1-2.1 12.8-2.4"/>
		<path id="Layer 19" class="s6" d="m928.4 185.1c4.6 0.3 8 0.7 12.7 2"/>
	</g>
	<g id="br">
		<path id="Path 0" class="s3" d="m882.7 304.6c-0.9 1.1-2.1 3.7-2.7 5.9-0.5 2.2-1 6.9-1 10.5 0 3.6-0.4 7-0.8 7.6-0.4 0.6-1.6 1.6-2.7 2.2-1.3 0.6-3.6 0.7-6.5 0.2-2.8-0.5-5.2-1.7-6.3-3.2-1-1.3-2.1-3.4-2.3-4.8-0.3-1.4-1.2-4.4-2-6.8-1-3.1-2.2-4.5-4.7-5.6-1.7-0.8-3.9-1.1-4.7-0.8-0.8 0.2-3 1.9-4.7 3.6-2.3 2.1-3.8 5-4.9 9.1-1.2 4.5-1.5 9.2-1.3 18.7 0.4 10.9 0.7 13 2.5 15.5 1.1 1.5 3 3.2 4.1 3.8 1.2 0.5 3.1 2 4.4 3.1 1.3 1.2 4.8 3.2 7.7 4.5l5.3 2.4c-0.1 13.9-0.8 24.7-1.6 33-0.8 8.2-2.5 19.3-3.8 24.5-1.4 5.2-2.7 11.2-3.1 13.2-0.6 3.5-1 3.9-5.9 5.5-2.8 0.9-6.3 2.3-7.7 3.1-1.4 0.9-3.5 2.7-4.7 4.1-1.2 1.5-2.2 3.6-2.3 4.8 0 1.3-1.1 3.2-2.5 4.3-1.4 1.1-2.5 2.7-2.5 3.5 0 0.8-0.5 1.5-1 1.5-0.6 0-1 0.9-1 2 0 1.1 0.4 2 1 2 0.5 0 1 0.6 1 1.2-0.1 0.7 0.5 1.9 1.2 2.5 0.7 0.7 3.8 2 6.8 2.8 3.9 1.1 11.5 1.7 26 2 11.3 0.2 32.6 0.7 47.5 1 14.8 0.3 29 0.8 31.5 1.1 2.5 0.3 7.2 0 10.5-0.6 3.3-0.7 6.8-1.9 7.9-2.8 1-0.9 2.5-3.2 3.2-5 1-2.2 1.2-4.5 0.6-7.5-0.4-2.3-2-5.9-3.5-8-1.5-2-5.3-5.2-8.5-7-3.1-1.8-7.3-3.9-9.2-4.7-1.9-0.8-3.8-1.9-4.2-2.4-0.4-0.6-0.8-4.7-0.8-9.1 0-4.4-0.7-12.3-1.5-17.5-0.8-5.2-2.4-17.4-3.5-27-1.2-9.6-1.9-18-1.7-18.5 0.2-0.6 2.4-2 4.8-3.2 2.4-1.3 6.6-4.4 9.3-7 2.6-2.7 5.5-6.2 6.4-7.8 0.8-1.7 2.4-5.7 3.4-9 1-3.3 2.1-10.7 2.4-16.5l0.6-10.5c-4.8-6.6-7.9-9.2-10-10.1-2.3-1-5-1.4-7.2-1-1.9 0.3-4.5 1.6-5.8 2.9-1.3 1.2-3.8 4.9-5.7 8.2-1.9 3.3-4.6 7.4-6.2 9.2-1.5 1.7-4 3.4-5.6 3.7-1.7 0.4-2.8 0.2-3.1-0.7-0.2-0.6-1-4.6-1.6-8.7-0.7-4.1-2.1-8.9-3-10.5-1-1.7-3.5-4.1-5.6-5.4-2.9-1.8-5.8-2.5-11.4-2.9-6.4-0.4-7.8-0.2-9.3 1.4z"/>
		<path id="Layer 21" class="s7" d="m928.8 442.1c1.5 4.5 9.1 8.9 12.2 12 5.9 5.7 12 16 14.6 23.8"/>
		<path id="Layer 21" class="s7" d="m949.9 450.7c2.7 7.7 11.9 12.9 12.4 21.8"/>
		<path id="Layer 21" class="s7" d="m922.4 373.6c0.5 3.9 4.2 9.9 5.3 13.7 2.7 10.2 4.7 18 6.3 28.4 0.6 4 1.7 9.6 2.3 13.6 0.1 0.6 0.9 2.8 0 3"/>
		<path id="Layer 21" class="s7" d="m931.8 315.9c18.5 4.6 21.6 17.5 18.9 34.9-0.4 2.6-4.8 15.3-7.5 16.7"/>
		<path id="Layer 21" class="s7" d="m938.9 310.8c2.8 1.9 5.2 4.9 7.8 7.1 1.1 0.9 3.9 2.4 4.5 3.7"/>
		<path id="Layer 21" class="s7" d="m913 326c0.7-2-3.2-8-3.9-8.9-4.6-5.4-15.2-8.4-22.1-8.4"/>
		<path id="Layer 21" class="s7" d="m863.5 323c-4.1-11.2-15.3-12.1-22.6-11.3"/>
		<path id="Layer 19" class="s6" d="m826.5 482.4c33.4 0 73.4-0.5 106.8-0.5 8.2 0 16.3 0.5 24.5 0.5 1 0 6.9 0.9 7.8-0.1 1.1-1.2 0.6-7.8 0.6-9.2 0-10.7-3.4-21.2-13.4-26.6-2.5-1.3-10.2-1.8-12-2.9-1.9-3-2.2-13-2.6-16.5-1.8-13.9-3.2-28.2-4.1-42.2-0.2-2.7-1.6-10.1-0.6-12.8 0.4-0.2 12-2.9 15.6-6.9 7.9-8.6 7.5-30.1 7.5-41.3 0-2.3 1.7-9.9 0.2-11.9-1.7-2.2-6.4-3.7-8.9-4.9-2-0.9-15.7-4.9-17.3-2.1-4.8 8.7-0.7 27-15.9 23.7-0.4-0.1-0.6-1.3-0.6-1.7-1.4-7.8-1.4-16-3-23.7-0.2-0.7-5.8-0.9-6.6-0.9-5.9 0-18.1-3.4-23-0.4-3.9 2.4-0.7 25.5-3.6 26.6-20.4 7.5-11.7-17.3-19-23-1.3-0.9-19.3 4-21 5.9-2.2 2.5-0.9 10.1-0.9 13.3 0 11.4-0.5 30.8 7.8 39.8 5.1 5.6 13.6 4.4 15.6 8.9-0.5 16.5-2.8 38.7-5.2 55-0.4 3.2-0.7 11.5-2.1 14.5-4.8 3.8-15.1 2.8-20.5 8.5-7.4 7.7-6.8 21.2-6.8 31.2"/>
		<path id="Layer 19" class="s6" d="m857.4 370.9c2.3 0.1 4.6 0.6 6.9 0.6 0.5 0.1 2.2-0.2 2.5 0.3"/>
		<path id="Layer 19" class="s6" d="m934.3 372c-4.2 0-8.3 1-12.5 1"/>
		<path id="Layer 19" class="s6" d="m847.1 445.3c3.9-0.8 9.1-2.1 12.8-2.4"/>
		<path id="Layer 19" class="s6" d="m928.4 441.6c4.6 0.3 8 0.7 12.7 2"/>
	</g>
	<g id="wq">
		<path id="Path 0" class="s0" d="m1118.2 47.3c-1.2 0.7-3.4 2.8-4.7 4.7-1.4 1.9-2.5 4.8-2.5 6.5 0 1.6 1 5 2.3 7.4 1.2 2.5 3.5 5.5 5.2 6.9 2.2 1.7 3.7 2.2 5.5 1.7 1.4-0.3 3.8-2 5.5-3.6 2.4-2.4 3.1-4 3.4-8.2 0.2-2.9-0.1-6.6-0.8-8.2-0.7-1.7-2.9-4.2-4.9-5.8-2-1.5-4.4-2.7-5.2-2.7-0.8 0-2.5 0.6-3.8 1.3zm4 31.9c-1.7 1.8-2.5 4.6-3.6 12.3-0.8 5.5-1.9 14-2.5 19-0.6 4.9-1.1 12-1.1 15.8 0 4.9-0.3 6.6-1.3 6.2-0.6-0.2-4.2-4.6-7.9-9.7-3.6-5.1-7.8-10.4-9.3-11.8-1.9-1.8-3.8-2.5-6.5-2.5-2.8 0-4.5 0.7-5.9 2.3-1.2 1.2-2.3 3.2-2.7 4.5-0.3 1.2 0.4 7.8 1.6 14.7 1.1 6.9 2.5 14.8 3.1 17.5 0.6 2.8 1.8 7.3 2.6 10 0.9 2.8 3.2 7.5 5.1 10.5 1.9 3 4.5 7.1 5.7 9 1.3 1.9 3.7 6.1 5.4 9.3l3.1 5.7c-5.9-1-9.4-0.6-11.9 0.1-2.4 0.8-4.9 2.1-5.5 2.9-0.7 0.8-2 3.5-2.9 6-0.9 2.5-2 7-2.3 10-0.7 5-0.5 5.8 1.7 8.1 2 2.1 3.9 2.8 10.9 3.7 4.7 0.6 32.3 1.4 61.5 1.7 47.8 0.6 53.4 0.5 57-1 2.2-0.9 5.3-3 6.9-4.8 1.6-1.8 3.3-4.2 3.7-5.4 0.5-1.3 0.9-5.3 0.9-9-0.1-6.5-0.3-7-3.8-10.5-2.8-2.8-4.5-3.7-7.2-3.8-1.9 0-5.1 0.4-7 0.9-1.9 0.5-5.4 1.2-7.8 1.5-4 0.6-4.2 0.5-4.2-1.9 0-1.4 1.8-6.4 4.1-11.3 2.2-4.8 4.5-10.7 5.1-13.2 0.5-2.5 1.6-5.9 2.3-7.5 0.7-1.7 2.4-5.7 3.8-9 1.3-3.3 3.2-8.7 4.2-12 0.9-3.3 2.8-8.4 4.1-11.3 1.3-2.8 2.4-5.7 2.4-6.2 0-0.6-0.6-2.2-1.4-3.7-0.7-1.6-2.6-3.4-4.2-4.1q-2.9-1.3-5.4-0.4c-1.4 0.5-4.3 3-6.5 5.7-2.2 2.6-7.2 7.1-11 10.1-3.9 2.9-7.3 5.4-7.8 5.4-0.4 0-0.7-4.8-0.7-10.7 0-6-0.7-15.1-1.5-20.3-0.8-5.2-2.2-11.9-3.2-14.9-1-2.9-2.6-6.1-3.7-7-1-0.9-3.3-1.6-5.1-1.6-1.9 0-4.2 0.8-5.4 2-1.2 1.1-3.6 6-5.3 11-1.8 4.9-5.3 12.7-7.8 17.3l-4.5 8.4c-2.5-5.2-4.7-11-6.5-16.2-1.8-5.2-3.6-10-4-10.5-0.4-0.6-1.3-2.8-2-5-0.7-2.2-2.4-5-3.6-6.3-1.6-1.5-3.6-2.2-6.2-2.2-2.7 0-4.5 0.7-6 2.3zm-57.8 5.6c-1.2 0.5-2.9 2-3.8 3.3-0.9 1.3-1.6 3.4-1.6 4.8-0.1 1.5 1.8 4.8 4.7 8.4 2.7 3.3 6.3 6.4 8.3 7.3 3 1.2 4.2 1.2 7.9 0.1 2.4-0.7 4.9-2 5.6-2.8 0.7-0.8 1.8-3.2 2.4-5.3 0.9-3.2 0.8-4.2-0.8-7-1.1-1.7-2.8-3.9-3.8-4.8-1-0.8-2.8-2.1-4.1-2.7-1.2-0.7-4.6-1.4-7.5-1.7-2.8-0.3-6.2-0.1-7.3 0.4zm159 5.1c-1.2 0.5-2.9 1.9-3.8 3.2-0.9 1.3-1.6 3.5-1.6 5.1 0 1.5 1.1 3.8 2.5 5.2 1.6 1.6 3.6 2.5 5.5 2.5 1.7 0 4.1-1 5.5-2.2 1.3-1.3 2.7-3.5 3-5 0.4-2.2-0.2-3.5-3-6.3-1.9-1.9-4.1-3.5-4.8-3.4-0.6 0-2.2 0.4-3.3 0.9zm-52.1-35.7c-1.2 0.7-2.9 2.5-3.7 4-1.1 1.9-1.4 3.6-0.8 5.5 0.5 1.8 2.2 3.4 5.2 5 2.9 1.4 5.4 2.1 7 1.7 1.4-0.3 3.5-1.7 4.7-3 1.3-1.4 2.3-3.5 2.3-4.7 0-1.3-0.8-3.4-1.7-4.7-1-1.4-3.3-3.1-5.1-3.8-1.7-0.7-3.8-1.3-4.5-1.3-0.6 0-2.2 0.6-3.4 1.3z"/>
		<path id="Layer 26" class="s5" d="m1199 193.2c-0.4 10.9 15.6 8.2 19.8 24.8m-7.1-20.1c2.5 1.2 4.8 3.9 7.1 5.7 0.6 0.5 1.9 1.1 2.2 1.9m-29.3-73.2c2.3-2.5 11.2-3.1 13.3-6.1 0.1-0.2 9.3-0.8 9.3-2.7 0-2.6-2.1 5.7-1.9 8.5 0.6 9-1.7 14.7-3.1 23.7-0.8 5-7.3 27-9.8 33.6m-10.3-57.2c-0.9-12.2-5.4-22.9-9.3-32.1-0.3-0.7-5.2-7.9-5.3-7.8-4.8 3.2-11.2 3.5-14.4 11.9m-7.2 15c-5.2-8.8-11.4-18.1-17.7-23.9-1.4-1.3-3.9-3-6.7-5.5-1.1-0.9-12.6 11.6-11 20m-1.7 25c-1.6-1.2-8.4-6.3-9.5-6.9-4.4-2.4-7.4-4.2-12.1-5.9-2.4-0.8-9.6 3.5-8.1 13.9m143.4-45.6c2.8 1.6 5.9 3.2 8.2 5.6m-59.7-43.2c2.5 1.9 5.7 2.7 8.3 4.7m-67.9-4.9c4.8-1.3 12.5 0.5 15.6 4.1m-64.7 27.8c5.7 1.3 14.3 4.9 17.7 9.3"/>
		<path id="Layer 23" class="s6" d="m1108 193.1c-2.8-1.4-4.2-9.5-5.9-12.2-11.4-17.9-12.9-39-21.9-57.7-1.5-3.2-1.3-15.4 1.1-17.8 1.3-1.2 7.9 1.9 8.9 2.7 7.3 5.7 12.6 13 19.1 19.6 1 1.2 5.4 7.7 6.9 7.5 0.6-0.1 0.5-13.6 0.5-15.2 0-12.2-1-30.2 5.1-40.9 0.7-1.2 4.4-6.5 5.4-6.5 1.9 0 5.1 1.7 6.2 3 7 8.9 9.1 20.7 14.4 30.8 1.5 2.8 2.7 5.9 3.8 8.9 0.5 1.5 0.6 5.4 1.7 4.4 2-1.9 2.8-8.6 3.9-11.2 4-9.5 6.9-21.4 13.6-29.4 0.7-0.8 6.7-5.8 7.7-5.3 1.7 0.8 4 3.1 4.8 4.7 6 11.8 3.3 25.1 5.7 37.8 0.7 3.6 0.5 7.6 0.9 11.2 0.3 1.9-1.5 6.6 0.1 5.6 6.1-4.3 22.3-27.1 32.4-23.5 4.6 1.6 4.8 14.1 3.7 17.4-6 16.9-13.1 33.5-21.1 49.7-1.3 2.8-4.4 14.9-7.1 16"/>
		<path id="Layer 23" class="s6" d="m1177.8 73.9c-8.7-0.6-13.1-12.6-7.9-20.3 2.9-4.4 7.4-2.9 12.1-2.8 14 0.3 8.2 22.5-2.9 22.6"/>
		<path id="Layer 23" class="s6" d="m1218.2 106.6c-1.7-3.2-2.3-8.1-1.2-11.6 2.4-7.4 12.2-9.1 18.2-5.5 6.9 4.2 5.8 15.1 0.3 18.9-2.6 1.8-6.3 2.2-9.3 2.2-1.1 0-7.3-2.6-8-4zm-82.8-43.1c2.8-11.7-11.6-20.5-19.6-14.6-9 6.4-4.1 21.3 3.5 23.7 4.9 1.6 13.8 0.1 16.1-9.1zm-52.8 41.6c1.1-0.2 2.7-1.9 3.4-2.7 1.9-2.4 3.1-8 1.5-11-5.7-10.7-18.8-12.2-23.7-2.3-3.4 7-0.5 13.9 5.7 16.7 2.7 1.2 6.4 2.4 9.2 1.5 0.5-0.1 3.6-2.2 3.9-2.2z"/>
		<path id="Layer 24" class="s6" d="m1110.8 192.8c-6.6 0-20.2-4.6-25.9 2.9-5.9 7.7-3.8 15.7-1.2 20.9 0.8 1.6 4.3 9.2 6.3 9.3 15 0.8 38.2-0.8 52.4-1.2 17.5-0.3 36.5 0.6 54.1 0.6 8.3 0 16.6 0.3 25.9-0.8 6.3-3.6 7.4-22.6 3.7-28.5-3.2-5.1-9.4-5.7-14.7-5.7-1.8 0-9.6 0.8-13.5 1.7"/>
	</g>
	<g id="bq">
		<path id="Path 0" class="s3" d="m1117.1 303.3c-1.4 0.7-3.5 2.8-4.8 4.7-1.5 2.2-2.3 4.9-2.3 7.2 0 2.1 0.6 5 1.2 6.5 0.7 1.6 1.8 3.4 2.5 4 0.7 0.7 1.3 1.7 1.3 2.3 0 0.5 1.5 1.7 3.3 2.6 1.8 0.9 4.3 1.4 5.7 1.1 1.4-0.3 3.4-1.4 4.6-2.4 1.1-1 2.6-2.8 3.2-4.1 0.7-1.2 1.2-4.7 1.2-7.7 0-3-0.5-6.5-1.2-7.8-0.6-1.2-1.9-2.9-2.7-3.8-0.9-0.9-2.6-2.1-3.9-2.8-1.2-0.6-3-1.1-3.9-1.1-1 0-2.9 0.6-4.2 1.3zm4.5 31.9c-3.1 3.1-3.3 3.9-4.5 14.8-0.7 6.3-1.6 14.5-2.2 18.2-0.5 3.8-0.9 9.7-0.9 13.3 0 3.6-0.3 6.5-0.8 6.5-0.4 0-3.9-4.4-7.7-9.9-3.9-5.4-8.1-10.7-9.5-11.7-1.5-1.2-4.1-1.9-6.8-1.9-3.6 0-4.8 0.5-6.9 3-2.2 2.6-2.5 3.7-2 8 0.2 2.7 1.2 9.3 2.1 14.5 0.9 5.2 2.7 13.8 3.9 19 1.8 7.6 3.2 11.1 7.4 17.5 2.8 4.4 6.7 10.9 8.6 14.5l3.5 6.5c-4.9-0.6-8.5 0-11.3 0.8-4.1 1.3-5.2 2.2-6.3 4.9-0.8 1.8-1.8 4.1-2.3 5-0.5 1-1.2 5.1-1.5 9-0.6 6.8-0.4 7.5 1.7 9.4 1.7 1.5 4.7 2.5 10.4 3.2 4.4 0.6 32.1 1.4 61.5 1.8 48.1 0.6 54 0.5 58.7-1 2.9-0.9 5.3-2.2 5.3-2.9 0-0.6 0.9-1.8 2-2.5 1.1-0.6 2.7-3.3 3.5-6 0.8-2.6 1.5-6.2 1.5-8 0-1.7-0.7-4.9-1.5-7-0.8-2-2.9-4.8-4.7-6.1-3-2.1-3.9-2.3-9.3-1.7-3.3 0.4-8.1 0.9-10.8 1.2-3.7 0.3-4.7 0.1-4.7-1.1 0-0.8 1.8-5.2 3.9-9.8 2.1-4.5 5.3-12.3 6.9-17.2 1.7-5 4.7-13.7 6.7-19.5 1.9-5.8 4.8-13.4 6.2-17 2.3-5.8 2.5-6.9 1.5-10.3-1-3-1.9-3.9-5-4.9-2.9-0.9-4.4-0.8-7 0.3-1.8 0.8-3.2 1.6-3.2 1.9 0 0.3-2.1 2.7-4.8 5.5-2.7 2.7-5.8 5.7-6.8 6.5-1.1 0.8-3.3 2.5-4.9 3.8-1.7 1.2-3.3 2.3-3.8 2.2-0.4 0-0.7-5.4-0.7-12 0-8.2-0.7-15.4-2.1-22.8-1.2-5.9-3-12.4-4-14.5-1.3-2.5-2.8-3.9-4.7-4.3-1.5-0.3-4.4-0.1-6.5 0.5-3.4 1-3.9 1.6-6.3 8.3-1.4 4-4.9 11.9-7.7 17.6-2.9 5.6-5.4 10.2-5.7 10.3-0.3 0-1.3-2.2-2.3-4.8-1.1-2.6-2.5-6.3-3.3-8.1-0.8-1.7-1.4-3.8-1.5-4.5 0-0.6-1.5-4.8-3.3-9.2-2.5-6.1-4.1-8.5-6.7-10.3-1.9-1.2-4.5-2.2-5.8-2.2-1.2 0-3.8 1.5-5.5 3.2zm-59.1 6c-1.1 0.6-2.5 1.9-3.2 2.7-0.7 0.9-1.3 3.4-1.3 5.6 0 3.2 0.6 4.6 3 7 1.7 1.6 3 3.4 3 4 0 0.5 0.8 1.7 1.7 2.5 1 0.8 3.6 2.1 5.8 2.9 3.5 1.2 4.7 1.1 9.3-0.3 4.7-1.4 5.4-2 6.8-5.9 1-2.6 1.4-5.3 0.9-7.2-0.3-1.7-2.6-4.8-4.9-7-3.3-3.1-5.4-4.2-9.2-4.8-2.7-0.4-6-0.7-7.4-0.7-1.4 0-3.4 0.6-4.5 1.2zm157.7 6.3c-2.8 2.3-3.3 3.3-3.3 6.8 0 3 0.7 4.8 2.3 6.4 1.6 1.6 3.5 2.3 6.3 2.3 2.6 0 4.8-0.6 6.2-2 1.3-1.1 2.6-3 2.9-4.3 0.3-1.2 0.3-3.1 0.1-4.2-0.3-1.1-1.4-3-2.4-4.2-1-1.2-3.4-2.5-5.3-2.9-2.9-0.5-4.2-0.1-6.8 2.1zm-50.2-37.5c-1.4 0.5-3.1 2.3-3.9 4.2-1.1 2.6-1.2 4.1-0.3 7 1.1 3.4 1.8 4 6.5 5.4 3 0.9 6.3 1.3 7.7 0.9 1.4-0.4 3.3-1.5 4.3-2.6 1-1.2 1.7-3.5 1.7-6.2q0.1-4.2-1.7-5.8c-1-0.9-3.4-2.1-5.3-2.8-1.9-0.6-4.2-1.1-5-1-0.8 0-2.6 0.5-4 0.9z"/>
		<path id="Layer 26" class="s7" d="m1199.4 449.2c-0.4 10.9 15.6 8.2 19.8 24.8m-7.1-20.1c2.5 1.3 4.8 4 7.1 5.7 0.6 0.5 1.9 1.1 2.2 1.9m-29.3-73.1c2.3-2.6 11.2-3.2 13.3-6.2 0.1-0.2 9.3-0.8 9.3-2.7 0-2.6-2.1 5.8-1.9 8.5 0.6 9.1-1.7 14.7-3.1 23.7-0.8 5.1-7.3 27-9.8 33.6m-10.3-57.1c-0.9-12.3-5.4-23-9.3-32.2-0.3-0.6-5.2-7.8-5.3-7.8-4.8 3.3-11.2 3.6-14.4 11.9m-7.2 15.1c-5.2-8.9-11.4-18.2-17.7-24-1.4-1.3-3.9-2.9-6.7-5.4-1.1-1-12.6 11.6-11 19.9m-1.7 25.1c-1.6-1.3-8.4-6.4-9.5-6.9-4.4-2.4-7.4-4.3-12.1-5.9-2.4-0.8-9.6 3.5-8.1 13.8m143.4-45.6c2.8 1.7 5.9 3.3 8.2 5.6m-59.7-43.2c2.5 1.9 5.7 2.7 8.3 4.8m-67.9-5c4.8-1.3 12.5 0.5 15.6 4.1m-64.7 27.9c5.7 1.3 14.3 4.8 17.7 9.2"/>
		<path id="Layer 23" class="s6" d="m1107.5 449.6c-2.8-1.4-4.2-9.5-5.9-12.2-11.4-17.9-12.9-39-21.9-57.7-1.5-3.2-1.3-15.4 1.1-17.8 1.3-1.2 7.9 1.9 8.9 2.7 7.3 5.7 12.6 13 19.1 19.6 1 1.2 5.4 7.7 6.9 7.5 0.6-0.1 0.5-13.6 0.5-15.2 0-12.2-1-30.2 5.1-40.9 0.7-1.2 4.4-6.5 5.4-6.5 1.9 0 5.1 1.7 6.2 3 7 8.9 9.1 20.7 14.4 30.8 1.5 2.8 2.7 5.9 3.8 8.9 0.5 1.5 0.6 5.4 1.7 4.4 2-1.9 2.8-8.6 3.9-11.2 4-9.5 6.9-21.4 13.6-29.4 0.7-0.8 6.7-5.8 7.7-5.3 1.7 0.8 4 3.1 4.8 4.7 6 11.8 3.3 25.1 5.7 37.8 0.7 3.6 0.5 7.6 0.9 11.2 0.3 1.9-1.5 6.6 0.1 5.6 6.1-4.3 22.3-27.1 32.4-23.5 4.6 1.6 4.8 14.1 3.7 17.4-6 16.9-13.1 33.5-21.1 49.7-1.3 2.8-4.4 14.9-7.1 16"/>
		<path id="Layer 23" class="s6" d="m1177.3 330.4c-8.7-0.6-13.1-12.6-7.9-20.3 2.9-4.4 7.4-2.9 12.1-2.8 14 0.3 8.2 22.5-2.9 22.6"/>
		<path id="Layer 23" class="s6" d="m1217.7 363.1c-1.7-3.2-2.3-8.1-1.2-11.6 2.4-7.4 12.2-9.1 18.2-5.5 6.9 4.2 5.8 15.1 0.3 18.9-2.6 1.8-6.3 2.2-9.3 2.2-1.1 0-7.3-2.6-8-4zm-82.8-43.1c2.8-11.7-11.6-20.5-19.6-14.6-9 6.4-4.1 21.3 3.5 23.7 4.9 1.6 13.8 0.1 16.1-9.1zm-52.8 41.6c1.1-0.2 2.7-1.9 3.4-2.7 1.9-2.4 3.1-8 1.5-11-5.7-10.7-18.8-12.2-23.7-2.3-3.4 7-0.5 13.9 5.7 16.7 2.7 1.2 6.4 2.4 9.2 1.5 0.5-0.1 3.6-2.2 3.9-2.2z"/>
		<path id="Layer 24" class="s6" d="m1110.3 449.3c-6.6 0-20.2-4.6-25.9 2.9-5.9 7.7-3.8 15.7-1.2 20.9 0.8 1.6 4.3 9.2 6.3 9.3 15 0.8 38.2-0.8 52.4-1.2 17.5-0.3 36.5 0.6 54.1 0.6 8.3 0 16.6 0.3 25.9-0.8 6.3-3.6 7.4-22.6 3.7-28.5-3.2-5.1-9.4-5.7-14.7-5.7-1.8 0-9.6 0.8-13.5 1.7"/>
	</g>
	<g id="wk">
		<path id="Path 0" class="s0" d="m1350 83c-1.9 0.4-6.4 2.2-10 4-3.7 1.9-7.6 4.9-9.1 6.9-1.4 1.9-3.4 5.2-4.4 7.2-0.9 2.1-1.9 6.9-2.2 10.6-0.4 5.7 0 8.2 2.1 14.1 1.4 3.9 4.8 10.9 7.4 15.4 2.6 4.5 7 11.3 9.8 15.1 2.7 3.8 6.6 10.5 8.6 14.8 1.9 4.4 4.3 10.4 5.3 13.3 1 2.9 2 8.5 2.4 12.5 0.6 7.1 0.6 7.1-1.9 7.1-1.4 0-4.2 0.5-6.3 1.1-2 0.6-4.2 2-4.7 3.2-0.6 1.1-1 3.5-1 5.3 0 2.2 0.8 3.8 2.7 5.3 2.4 1.8 3.7 2.1 8.3 1.5 3-0.4 10.7-0.7 17-0.8 6.3 0 28.2 0.4 48.7 0.9l37.1 1c4.3-4.3 5.3-6.4 5.3-8.5 0-2.5-1.3-4.4-5.8-9.1-3.3-3.4-7.4-6.4-9.6-7.1-3-1-3.7-1.8-3.7-3.9 0-1.5 0.9-4.7 2.1-7.2 1.1-2.5 5.3-9.5 9.1-15.6 5.7-9 7.9-11.6 11.3-13.3 2.5-1.3 7.1-5.5 11.4-10.6 6.1-7.2 7.2-9.2 7.7-13.2 0.3-2.7 1-6.7 1.5-9.1 0.6-2.3 0.9-7.4 0.7-11.3-0.2-5-0.9-7.9-2.4-10.1-1.1-1.6-5-5-8.5-7.5-3.5-2.5-9.6-5.6-13.4-6.8-3.9-1.2-9.3-2.2-12-2.2-2.8 0-10.6 0.8-17.5 1.7-6.9 1-14.1 2.6-16 3.6-1.9 1.1-5.3 4.4-7.5 7.5-2.8 3.9-4.7 5.6-6.3 5.6-1.4-0.1-3.2-1.6-5-4-1.5-2.2-4.1-5.4-5.7-7.3-2.1-2.3-5.1-4-10-5.6-3.9-1.2-10.4-2.7-14.5-3.4-4.1-0.6-9.8-1.3-12.5-1.4-2.8-0.2-6.6 0-8.5 0.3z"/>
		<path id="Layer 30" class="s5" d="m1440.8 195.7c2.6 6.6 13.9 8.2 17.1 11.9 1.5 1.8 4.2 6.7 4.8 9.1"/>
		<path id="Layer 30" class="s5" d="m1447.5 191.9c1.4-6.9 5.7-19.5 11-26.8 5.2-7 11-16.4 14.7-27 6.5-18.6 1.5-35.6-17.1-43.8-4.1-1.8-12.2-3-16.7-2.6-5.9 0.6-20.7 1.7-30.1 7.6"/>
		<path id="Layer 30" class="s5" d="m1473.1 92.3c2.8 0 6.1 6 7.4 8.2 5.7 8.9 6.4 19.2 6.5 29.7"/>
		<path id="Layer 28" class="s6" d="m1345.2 224.8c31.7 0 62.4-0.5 94.1-0.5 8 0 16.2 0.4 24.2 0.4 0.9 0 7 1 7.2-0.1 1.6-8.2-3.3-22.4-10.8-25.5-2.2-0.9-9.4-2.5-11.5-3.3 0 0 7-17.5 14.9-27 16.1-19.5 40-41.5 25.4-68.3-14.3-26.2-52.4-17.5-61-14.2-8.6 3.3-17.1 9.5-21 13.6-3-5-14.8-12-19.8-14.1-12.2-4.8-37.8-7.8-48.9-0.2-10.3 7-17.9 19.3-15.8 39.5 2.5 23.4 31.9 42.8 40.9 71.4 0.1 0.2-7.5 1.6-7.5 1.6-2.9 1.4-5.7 3.5-7.3 6.6-2.6 5.1-3 10.8-3 16.5 0 0.5 0.1 0.9-0.3 1.2"/>
		<path id="Layer 28" class="s6" d="m1362.4 196.3c3.2-0.6 7.9-1.6 11-1.8"/>
		<path id="Layer 28" class="s6" d="m1449.1 195.9c-3.1-0.4-5.5-1.4-8.7-1.4"/>
		<path id="Layer 29" class="s6" d="m1406.9 91.1c0-15.9 2.4-31.7 2.5-47.5"/>
		<path id="Layer 29" class="s6" d="m1391.8 54.9c5.2 0.2 10.4 1.4 15.6 1.6 5.5 0.2 11.9 0 17.2 0"/>
	</g>
	<g id="bk">
		<path id="Path 0" class="s3" d="m1350 339c-1.9 0.4-6.4 2.2-10 4-3.7 1.9-7.6 4.9-9.1 6.9-1.4 1.9-3.4 5.2-4.4 7.2-0.9 2.1-1.9 6.9-2.2 10.6-0.4 5.7 0 8.2 2.1 14.1 1.4 3.9 4.8 10.9 7.4 15.4 2.6 4.5 7 11.3 9.8 15.1 2.7 3.8 6.6 10.5 8.6 14.8 1.9 4.4 4.3 10.4 5.3 13.3 1 2.9 2 8.5 2.4 12.5 0.6 7.1 0.6 7.1-1.9 7.1-1.4 0-4.2 0.5-6.3 1.1-2 0.6-4.2 2-4.7 3.2-0.6 1.1-1 3.5-1 5.3 0 2.2 0.8 3.8 2.7 5.3 2.4 1.8 3.7 2.1 8.3 1.5 3-0.4 10.7-0.7 17-0.8 6.3 0 28.2 0.4 48.7 0.9l37.1 1c4.3-4.3 5.3-6.4 5.3-8.5 0-2.5-1.3-4.4-5.8-9.1-3.3-3.4-7.4-6.4-9.6-7.1-3-1-3.7-1.8-3.7-3.9 0-1.5 0.9-4.7 2.1-7.2 1.1-2.5 5.3-9.5 9.1-15.6 5.7-9 7.9-11.6 11.3-13.3 2.5-1.3 7.1-5.5 11.4-10.6 6.1-7.2 7.2-9.2 7.7-13.2 0.3-2.7 1-6.7 1.5-9.1 0.6-2.3 0.9-7.4 0.7-11.3-0.2-5-0.9-7.9-2.4-10.1-1.1-1.6-5-5-8.5-7.5-3.5-2.5-9.6-5.6-13.4-6.8-3.9-1.2-9.3-2.2-12-2.2-2.8 0-10.6 0.8-17.5 1.7-6.9 1-14.1 2.6-16 3.6-1.9 1.1-5.3 4.4-7.5 7.5-2.8 3.9-4.7 5.6-6.3 5.6-1.4-0.1-3.2-1.6-5-4-1.5-2.2-4.1-5.4-5.7-7.3-2.1-2.3-5.1-4-10-5.6-3.9-1.2-10.4-2.7-14.5-3.4-4.1-0.6-9.8-1.3-12.5-1.4-2.8-0.2-6.6 0-8.5 0.3z"/>
		<path id="Layer 30" class="s7" d="m1440.8 451.7c2.6 6.6 13.9 8.2 17.1 11.9 1.5 1.8 4.2 6.7 4.8 9.1"/>
		<path id="Layer 30" class="s7" d="m1447.5 447.9c1.4-6.9 5.7-19.5 11-26.8 5.2-7 11-16.4 14.7-27 6.5-18.6 1.5-35.6-17.1-43.8-4.1-1.8-12.2-3-16.7-2.6-5.9 0.6-20.7 1.7-30.1 7.6"/>
		<path id="Layer 30" class="s7" d="m1473.1 348.3c2.8 0 6.1 6 7.4 8.2 5.7 8.9 6.4 19.2 6.5 29.7"/>
		<path id="Layer 28" class="s6" d="m1345.2 480.8c31.7 0 62.4-0.5 94.1-0.5 8 0 16.2 0.4 24.2 0.4 0.9 0 7 1 7.2-0.1 1.6-8.2-3.3-22.4-10.8-25.5-2.2-0.9-9.4-2.5-11.5-3.3 0 0 7-17.5 14.9-27 16.1-19.5 40-41.5 25.4-68.3-14.3-26.2-52.4-17.5-61-14.2-8.6 3.3-17.1 9.5-21 13.6-3-5-14.8-12-19.8-14.1-12.2-4.8-37.8-7.8-48.9-0.2-10.3 7-17.9 19.3-15.8 39.5 2.5 23.4 31.9 42.8 40.9 71.4 0.1 0.2-7.5 1.6-7.5 1.6-2.9 1.4-5.7 3.5-7.3 6.6-2.6 5.1-3 10.8-3 16.5 0 0.5 0.1 0.9-0.3 1.2"/>
		<path id="Layer 28" class="s6" d="m1362.4 452.3c3.2-0.6 7.9-1.6 11-1.8"/>
		<path id="Layer 28" class="s6" d="m1449.1 451.9c-3.1-0.4-5.5-1.4-8.7-1.4"/>
		<path id="Layer 29" class="s6" d="m1406.9 347.1c0-15.9 2.4-31.7 2.5-47.5"/>
		<path id="Layer 29" class="s6" d="m1391.8 310.9c5.2 0.2 10.4 1.4 15.6 1.6 5.5 0.2 11.9 0 17.2 0"/>
	</g>
</svg>