<svg version="1.2" xmlns="http://www.w3.org/2000/svg" viewBox="0 0 1266 691" width="1266" height="691">
	<title>New Project</title>
	<style>
		.s0 { fill: none;stroke: #2a2a2a;stroke-linecap: round;stroke-linejoin: round;stroke-width: 32 } 
		.s1 { fill: none;stroke: #474747;stroke-linecap: round;stroke-linejoin: round;stroke-width: 32 } 
		.s2 { fill: none;stroke: #2d2d2d;stroke-linecap: round;stroke-linejoin: round;stroke-width: 32 } 
		.s3 { fill: none;stroke: #6c6c6c;stroke-linecap: round;stroke-linejoin: round;stroke-width: 32 } 
		.s4 { fill: none;stroke: #4d4d4d;stroke-linecap: round;stroke-linejoin: round;stroke-width: 32 } 
		.s5 { fill: none;stroke: #a8a8a8;stroke-linecap: round;stroke-linejoin: round;stroke-width: 32 } 
		.s6 { fill: none;stroke: #8e8e8e;stroke-linecap: round;stroke-linejoin: round;stroke-width: 32 } 
		.s7 { fill: none;stroke: #d8d8d8;stroke-linecap: round;stroke-linejoin: round;stroke-width: 32 } 
		.s8 { fill: none;stroke: #000000;stroke-linecap: round;stroke-linejoin: round;stroke-width: 32 } 
		.s9 { fill: none;stroke: #000000;stroke-linecap: round;stroke-linejoin: round;stroke-width: 44 } 
		.s10 { fill: #f3d043;stroke: #f3d043;stroke-linecap: round;stroke-linejoin: round;stroke-width: 3.5 } 
		.s11 { fill: none;stroke: #ffe370;stroke-linecap: round;stroke-linejoin: round;stroke-width: 32 } 
		.s12 { fill: none;stroke: #caa81f;stroke-linecap: round;stroke-linejoin: round;stroke-width: 29 } 
		.s13 { fill: #ff0505;stroke: #ff0d0d;stroke-linecap: round;stroke-linejoin: round;stroke-width: 14 } 
		.s14 { fill: #ff9999;stroke: #ff5454;stroke-linecap: round;stroke-linejoin: round;stroke-width: 14 } 
		.s15 { fill: none;stroke: #000000;stroke-linecap: round;stroke-linejoin: round;stroke-width: 12 } 
		.s16 { fill: #ff0d0d;stroke: #ff0d0d;stroke-linecap: round;stroke-linejoin: round;stroke-width: 12 } 
		.s17 { fill: #ff5454;stroke: #ff5454;stroke-linecap: round;stroke-linejoin: round;stroke-width: 12 } 
		.s18 { fill: none;stroke: #000000;stroke-linecap: round;stroke-linejoin: round;stroke-width: 28 } 
		.s19 { fill: #ff0d0d;stroke: #ff0d0d;stroke-linecap: round;stroke-linejoin: round;stroke-width: 10 } 
		.s20 { fill: #ff5454;stroke: #ff5454;stroke-linecap: round;stroke-linejoin: round;stroke-width: 10 } 
		.s21 { fill: none;stroke: #000000;stroke-linecap: round;stroke-linejoin: round;stroke-width: 24 } 
		.s22 { fill: #ff0d0d;stroke: #ff0d0d;stroke-linecap: round;stroke-linejoin: round;stroke-width: 6.9 } 
		.s23 { fill: #ff6a6a;stroke: #ff5454;stroke-linecap: round;stroke-linejoin: round;stroke-width: 14 } 
	</style>
	<g id="Folder 4">
		<path id="Layer 6" class="s0" d="m1215 196.7c-0.4-7.4-8.5-17.9-13.4-23-0.6-0.7-5.2-5.7-6.3-4.7-9.9 9.8 2.6 30.4 5.1 40.5 1.1 4.7 3.1 13.4-3.1 16-3.4 1.4-18.4-16.9-20.9-19.8-0.7-0.8-4.8-6.8-6.3-4.6-7.4 10.3 8.3 31.4 10.7 42.5 0.5 2.7 2.2 13-0.8 14.7-7.6 4.2-16.2-15-19.3-20.3-1.4-2.4-2.6-4.9-3.8-7.4-0.1-0.3-0.1-0.9-0.4-0.8-0.6 0.4 0.4 1.4 0.7 2 2 3.8 3.8 7.7 5.6 11.6 3.8 8.3 6.2 17 8.7 25.8 4 13.9 6.3 28.1 7.9 42.4 0.9 7.7-0.9 18.7 2.5 25.4 0.6 1.1 2-7.7 2.1-8.5 0.7-7.6 0.3-15.2 0.9-22.8 0.2-2.4 0.6-4.8 1-7.2 0-0.4 0.3-4.1 0.5-3.8 6.7 6.5 14 35 16.8 44.8 0.8 2.8 2.2 5.7 2.6 8.6 0.1 0.6-0.3 5.2 0.6 5.3 2.3 0.4 0.5-4.5 0.7-6.8 0.5-5.9 1.6-11.6 3-17.2 0.1-0.3 0.6-4.5 1-4.5 1.4 0.3 3.7 7.7 4.2 8.8 4.8 10 9.4 20.6 11.5 31.6"/>
		<path id="Layer 7" class="s1" d="m1152 314.6c-0.1-6.5-5.6-28.2-7.2-34.7-3.2-12.6-7.7-25.7-10.4-38.5-0.9-4.7-3.3-9.2-5.3-13.6-4-8.6-6.7-17.7-10.6-26.3-5-10.9-12.9-28.5-27.3-17.8-2.7 1.9 2.4 12.6 3 14.6 4.1 12 11.5 20.2 19.9 29.3 3 3.2 8.4 9.7 6.8 14.7-2.6 7.8-19-1.4-21.6-2.6-0.2-0.1-1.2-0.6-1.7-0.3-2.1 1.4-9.7 25.7-10.3 28-4.6 21.1 25.8-4 36.9 3.2 2.3 1.5 6.8 4.9 7 7.9 0.3 3.1-4.1 5.1-6.4 6.4-7.1 4.3-22.5 3-25.6 12.3-0.7 2.1-1.2 4.1-1.2 6.4-0.3 17 24.6 4.9 23 20.9-1.5 15.1-28.1 2.3-34.9 11.8-1.8 2.4 0.7 14.8 3 17.3 3.8 4.1 9.6 1.4 13.6 4.3 1.8 1.3 9.7 3.3 9.7 5 0 9-11.5 16.8-20.3 19"/>
		<path id="Layer 8" class="s2" d="m1000 234.9c2.1-1.8-4.6-11.1-5.5-13.4-5.5-13.1-11.7-25.9-17.9-38.6-1.6-3.3-10.5-6.4-12.6-2.5-3.2 5.6 3.7 15.6 6.2 20.1 4.8 8.9 10.8 17.3 14.9 26.5 5 11.2 7.5 23.5 12.5 34.6 1.7 3.9 13.8 40.9 9.8 44.3-2.5 2-12.3-18.5-14.5-19.7-9.3-5.2-15-13.5-21.6-21.7-0.6-0.7-9.6-32.7-10.7-31.2-3.9 5.9 2.3 39 4.5 44.5 8.6 21.4 22.7 37.8 27.5 60.9 0.7 3.6 4.3 25.9 1 27.5-2.7 1.3-11.5-8.6-13-10.2-11.7-12.8-15.5-27.8-21.9-43.5-2.2-5.3-4.6-10.6-7.8-15.4-0.1-0.2-0.8-1.6-1.3-1.4-3.2 1.2 1.1 16 1.4 17.7 4.1 17.4 9.7 34.2 13.3 51.8 1.1 5.4 3.7 15.8-4.7 15.6-13.9-0.2-21.5-24.7-25-35.1-6.7-19.9-5.1-40.9-8.2-61.6-2.7-18.5-8.3-37-8.3-55.7"/>
		<path id="Layer 9" class="s3" d="m908.2 338.8c0-8.6-9.4-48.8-10.5-57-2.2-16.3-3.7-35.1-7.1-51.2-2-9.4 4.7-20.4-8.8-21.4-17.2-1.3-3.6 26.5-2.9 35 0.5 6 1.8 13.4-6.8 11.6-2.2-0.5-2.1-5.7-2.1-7.2-0.1-9.1 7.8-11.2 13.1-17.6 2.1-2.4 2.1-6.1 2.5-9 1.7-12.6-7.2-21.1-13.1-31-0.9-1.4-5.8-11.9-9.6-8.9-2.8 2.3-3.3 9.8-3.6 12.9-1.4 13.9 3.5 26.8 3.5 40.6 0 1.8 0.6 16.6-2.3 17.1-5.2 0.8-12-9.8-13.3-13.6-5-15.2-1.2-33.6-2.3-49.4-0.2-3.5-7.1-19.1-11.7-14.3-5.4 5.5-5.1 18.2-5.5 24.8-1.2 17.2 5.2 57 10.8 73 2.6 7.3 12.7 11.1 20 8.9 0.4-0.1-0.7-1.2-0.8-1.4-1.3-2.2-2.2-4.6-3.5-6.8-2-3.4-5.2-11.4-8.8-13.2-3-1.6-11.6 5.8-13.6 8.3-8.3 10.1-10.6 29.2 4.9 32.5 3.2 0.7 18.5 2.1 18.8-1.9 0.6-8.5-13-4.9-16.5-3.6-11.5 4.2-21.7 11.7-19.4 26.3 1.2 7.2 26.1 8.9 31.7 8.6 1.8-0.1 8.4-1.2 8.9-3.8 1.1-6.7-11.8-4.4-14.5-3.9-12.4 2.3-34 6.9-29.5 25.1 2.5 9.8 23.1 12.8 30.7 13 2.3 0.1 10.5-0.9 11.2-4.1 0.8-4.6-8.8-6.1-11.4-6.4-8.7-0.9-30.4 0.3-34.2 11.1-3.9 11.3 9.2 13.2 17.6 14.2 2.2 0.3 10.7-1.4 9.7-1.5"/>
		<path id="Layer 10" class="s4" d="m741.2 193c0-9.3-24.2-21.3-28.1-11.4-4.6 11.8 10.5 12 17.4 15.7 2.4 1.3 8.8 5.1 6.7 9-2.8 5-26.9-8.7-28.1 0.1-1.5 11 19 8.5 24.6 10.3 2.9 0.9 8 8.1 6.2 11.1-1 1.9-7.1-0.3-8.4-0.6-8.3-1.9-20.3-9.4-23.9 1.8-2.3 7.1 20.7 10.7 25.4 12.2 2.6 0.8 6.5 5.2 4.5 8.3-1.3 2.2-7.6 0-9.1-0.4-6.5-1.5-28.1-11.6-28.4 1.6-0.3 15.1 34.9 8.1 40.3 16.9 2.8 4.6-1.8 14.3-3.3 18.5-4.6 12.9-6.8 26.6-11.8 39.4-1.5 3.9-6.4 11.8-11.1 12.5-0.8 0.1 1.9-12.6 2.1-13.7 2.6-12.9 4.8-25.9 8-38.6 0.5-1.7 3.4-11 0.6-11.4-8.3-1.4-16.8 1.3-20.8 9.4-3.6 7.2-1.8 16.9-2 24.7-0.5 12.1-2.6 23.2-1.2 35.4 0.4 3.1 3.4 21.7 0.3 23.3-2.7 1.3-10-7.3-11.5-9-9.4-10.7-11.5-30.2-23.8-38.9-1.5-1.1 1.1 3.5 1.7 5.2 1.2 4.2 2.8 8.3 4.7 12.2 4.1 8.5 7.4 17.6 9.4 26.8 0.8 3.7 1.9 7 3.4 10.4 0.2 0.5 1.7 5 2 4.6 2.5-3.6 1.4-12 1.8-16.1 0.9-10.9 2.7-21.6 4.1-32.4 0.1-0.8 2.4-14.2 0.4-14.8-3.2-1-27.7-4.7-30-1.9-0.8 1 5.7 15 6.8 18 3.2 8.8 1.1 18.5 3.9 27.3 1.5 4.9 2 9.9 3.4 14.7 0.4 1.7 0.4 3.4 0.9 5 0.3 0.8 0.5 3.3 0.5 2.5 0.1-3.7-3.7-9.5-4.9-13.1-3.6-10.1-5.1-20.8-8.9-31-1.8-4.7-5.7-10.1-5.8-15.3"/>
		<path id="Layer 11" class="s5" d="m652.9 385.8c-0.9-15-5.4-34.1-6.9-50.7-0.5-5.6-0.2-11.3-6.1-14.1-5.4-2.6-4.6 15.9-4.6 17.9 0 7.8 11.8 40.4-8.8 32.2-2.3-0.9-4.7-1.6-6.8-2.7-10.4-5.4-15.2-21.3-19.4-31.5-16.2-38.9-19.2-63.8-14.5-107.1 0.8-7.4 0.5-40.2 6.8-45.1 1.1-0.9 3.8 3.1 4.1 3.8 3.1 5.5 3.9 11.7 4.7 17.9 3.6 25.4-2.2 51.2-0.9 76.7 0.8 15.4 3.3 35.3 8.4 49.9 1.2 3.5 2.9 12.5 6.5 14.5 2.6 1.4 5.2-2.3 5.3-4.4 0.4-7.1 0-14.3-0.3-21.4-0.1-1 0.2-7.3-0.8-7.8"/>
		<path id="Layer 12" class="s6" d="m494.6 236.1c0-14.3-2.8-28.5-7.1-42.2-0.6-2.1-4.7-13.1-7.4-12.1-18.5 6.2-6.1 35.6-2.9 47.3 0.7 2.5 4.3 17.9-3.5 13.1-4.4-2.6-6.1-12.8-6.7-17.2-1.6-11.9-2.6-23.8-4.4-35.6-0.2-1.2-2.8-15.5-5.7-14-2.6 1.3-2.5 11.6-2.8 13.9-1.6 16.6 2 32.1 4.1 48.4 0.8 6.2 1.8 12.4 1.6 18.7 0 0.5 0 1-0.7 1.1-4.5 0.8-5.5-17.4-5.7-20.2-1.4-21.1-4.8-42.5-11.8-62.6-2.8-8.3-29.5-10-37.3-10-2.5 0-9.8-1.3-11.7 0.8-2 2.1 1.4 9.9 2.1 12 3.5 10.8 6.4 22.6 8 33.8 4.5 30.7 12.6 61 20.3 91 2.1 7.8 3.1 31.5 7 37.3 5 7.3 16.4 29.5 26.1 30.4 1.6 0.2-0.8-9.3-0.9-10.1-2.1-12.6-4.2-25.3-6-37.9-4.6-32.3-11.1-64.9-16.7-97.1-1.7-9.7-2.9-19.6-4.5-29.3-0.5-3.3-1.4-6.4-1.9-9.6-0.3-1.7-1.8-6.4-0.5-5.2 5.8 5.8 9.7 18.2 13.5 25.5 13.5 26.3 14.6 55.2 19.1 83.8 1.8 11.1 5.1 22 6.6 33.2 1.9 12.9 3.2 26.4 5.9 39.2 0.6 2.7 0.9 10.2 3.2 12.2 1.6 1.3 5.5-3.7 6.2-4.6 4.2-5 6.5-12.5 4.6-19"/>
		<path id="Layer 13" class="s7" d="m379.8 159.2c0.1 34.6 8 74.2 13.4 110.1 1.4 9.5 4.2 18 4.5 27.6 0.1 1.2 2 7.6 1.2 8.5-0.8 0.9-4.4-3.8-4.7-4.5-2.6-7.7-3.5-17.4-4.8-25.5-4.6-26.4-10-52.6-12.8-79.3-0.3-2.9-1.8-26-10.5-21.6-3.7 1.9-3.7 9.3-3.7 12.6-0.1 13.3 9.1 24.7 9.2 37.8 0 9.7-22.9 4.5-18.5 18.5 3.9 12.6 29.6 1.7 24.7 19.5-2 7.4-14.8 4-16.2 13.8-0.9 6.3 8.8 3.4 9.9 7.8 2.2 9.7-8.7 8.1-9.9 13.8-1.2 6 6.9 5.5 6.8 11.5-0.1 3.8-3.5 8.2-6.6 10.3-1 0.7-5.6 2.2-5.3 3.9 0.8 4.7 16 2.4 16 7.5-0.1 6.5-10.6 8.4-14.7 10.8-0.6 0.4 1.4-0.2 2.1-0.3 0.8-0.1 6.3-1.3 6.8-0.5 0.3 0.4-2.7 3-2.9 3.2-3.2 2.8-11 6.4-12.8 10.2 0 0.1 12.5-0.2 12.7 0.8 1.2 4.9-6.5 6.7-6.8 10.6 0 0.5 7-1.3 7.5-0.2 1.4 2.8-6 6.5-5.7 9.4 0 0.2 5.8-1 6.3-1 3.3-0.2 4.5 2.1 7 2.3"/>
		<path id="Layer 14" class="s5" d="m174.1 168.8c0.1 13.8 10 29.3 13.4 42.6 8.5 33.2 13.2 67 22.7 100 2.9 10.4 5.1 20.8 7.7 31.3 0.8 3.3 2 9.2 6.7 8.6 3.4-0.5 3.1-6.9 3.1-9 0.2-11.1-1.4-22.1-3.2-32.9-3.8-23.2-8.2-48-14.4-70.8-2.9-11.1-7.8-21.3-10.2-32.6-0.7-3.7-6.9-27.7-3.4-30.2 8.9-6.3 19.7 21.7 22 26.4 12.9 26.5 16.7 57.2 21.3 86 1.2 7.4 3.2 14.6 4.8 21.9 0.2 1 1.1 5.8 2.5 5.9 5.6 0.7 4.2-19.2 4.2-21.4-0.4-22.6-5.5-45.7-9-68-1.2-7.3-2.6-14.5-3.7-21.7-0.3-1.9-0.7-3.8-1-5.8-0.2-1.3-1-4.9-0.2-3.9 15.6 20.4 24.1 48.6 27.5 73.8"/>
		<path id="Layer 15" class="s7" d="m145.4 169.2c0.6 12.2 15.4 43 19.5 56.4 9.8 31.9 14.5 66.3 21.6 99 2.6 12.4 5.9 24.8 7.6 37.5 0.2 1.1 1.6 11 0.4 11.7-1.3 0.6-6.1-6.7-6.6-7.4-5.3-8.2-8.5-17.6-11-27-2.9-11-7.3-21.9-9.3-33.1-2.3-12.1-2.4-24.6-4.4-36.9-3.2-19.5-8.3-38.5-14.9-57.2-3.9-11.1-5.8-22.7-9.2-34-0.2-0.5-4.2-10.1-6.3-8.3-1.7 1.4-0.5 9.4-0.4 11.1 0.7 11.6 4.6 22.4 7.8 33.4 4.6 15.7 8 31.7 12.9 47.3 7.5 24 17 48.6 19.7 73.9 0.6 5.6-16.5 40-21.9 43.7-1.5 1.1 38.4-2.7 15.6-13.5-8.5-4-9.4-16.3-13.4-24.7-15.8-34-18.6-73.1-24.6-109.7-1.9-11.1-3.6-22-7.3-32.6-1.3-3.7-2.5-7.5-3.5-11.3-0.4-1.2-0.4-4.3-1.5-3.6-2.4 1.8-1.4 10.6-1.3 12.8 0 13.6 3.8 27.4 7.2 40.5 10 38.6 17.7 75.5 20.4 115.3 0.6 8.2 1.4 16.3 2.8 24.4 0.5 2.5 2.6 8.6 1.2 11.2-2.7 5-15.7-9.7-17.1-11.8-8.1-13-4.9-23-4.9-37.1 0-5.3-1.3-10.3-1.6-15.5"/>
	</g>
	<g id="Folder 3">
		<g id="Folder 1">
			<path id="Shape 1" fill-rule="evenodd" class="s8" d="m111 194.6c3.3 14.8 4.3 29.9 5.3 45 1.8 29.9 0.7 60.1 0.7 90 0 20.7-5.1 58.4 20.4 67.1 7.6 2.6 17.7 2.2 25.6 2.2 8.8 0 16.6-1.7 24.7-5.1 52.9-21.9 93.3-79.1 93.3-136.3 0-16.6 0.7-33.8-9.2-48-26.1-37.4-68.6-49.5-111.7-49.5-17.4 0-33.8 1.6-50.1 7.3-3.4 1.2 0.4 24.9 1 27.3z"/>
			<path id="Shape 2" class="s8" d="m181.7 308.3c0.7-5.3 1-13.4 1.4-23.8 0.6-20.2-3.3-35.7-2.7-36.9 0.4-0.5 1.6-0.6 2.1-0.6 22.2-0.2 26.9 22.2 22.3 34.6-2.1 5.9-9.1 21-22.4 26.1"/>
		</g>
		<g id="Folder 2">
			<path id="Layer 1" fill-rule="evenodd" class="s8" d="m332.7 371.3c0.1-26.2 2.5-52.5 4.3-78.6 2.1-29.4 2.9-56.5-0.7-92.8-0.5-4.3-1.4-22.8 1.5-27.4 7.2-11.4 32.3-14.4 44.1-15.1 38.1-2.4 76.4-2.1 109 20.4 20.3 14.1 24.2 54 8 70-8.5 8.4-21.9 15.1-33.3 17.7-3.9 0.9-12 1.9-15.9 2.3-0.6 0-5.9-0.2-5.5 0.7 2.4 5.7 16.5 15.7 21 22.7 13.2 20.7 26.7 42 38.5 63.6 3 5.5 5.5 11.8 8.8 17.1 1.4 2.2 3.2 1.5-0.7 8.1-2 3.3-18.3 3.2-22.6 3.2-8.6 0-24.6 5.5-32.5 1.4-5.8-2.9-10.4-10.7-13.9-15.9-7.4-10.9-17.5-20.4-25.4-31-5.9-7.9-11.3-15.8-17.1-23.6-0.5-0.8-4-7.4-4.9-7.2-0.4 0.1-0.3 2.8-0.3 2.9 0 5.7 0 11.3 0 17 0 16.8-0.4 33.1-2.5 49.6-0.6 4.7-1.6 10.1-5 13.3-4.4 4.2-9.9 4.5-12 4.5-11.7 0-28.7 4.5-36.4-4.2-5.1-5.7-6.5-13.7-6.5-18.7z"/>
			<path id="Layer 2" class="s8" d="m397.5 214c5.9 0 11.5 0.2 17.3 0.8 0.6 0 5.4 0.6 5.2 1.6-0.1 0.6-1.4 1-1.8 1.2-1.8 0.6-3.5 1.2-5.4 1.4-4.1 0.4-7.9 1.7-11.9 1.7-0.4 0-3.5 0.1-3.6 0-2.1-5 6.3-4.5 8.1-4.5"/>
		</g>
		<path id="Shape 3" fill-rule="evenodd" class="s8" d="m742.2 169.1c6.5 4.2 7.6 14.9 7.8 18.5 0.9 11 1.8 15.4 2.2 26.4 1.1 31.4-0.3 63.6-5.3 94.5-3.6 21.9-12.3 44.8-26.7 60.6-28.2 30.9-84.7 35.3-114.8 7.1-42.3-39.7-46.9-104.6-43.5-163.4 0.7-13.9 1.6-27.7 2.3-41.5 0.1-1.3 0.4-11.2 4-11.8 17.1-2.6 20-1.1 31.7-0.7 2.5 0.1 5-0.9 14.1 8.3 6.8 6.9 4.8 28.6 4.8 33.2 0 30.1-2.6 56.3 8.1 83.6 5.3 13.7 15.8 27.2 30.1 27 42.1-0.7 37.4-64.4 38.3-102.6 0.1-3.7 1.3-30 6.8-36.6 6-7.3 16.7-9.2 18.8-8.9 9.9 1.5 10.8-0.6 21.3 6.3z"/>
		<path id="Layer 3" fill-rule="evenodd" class="s8" d="m816.3 163.2c3.2-3.3 11.5-5.1 21-4.5 42.3 2.9 69.4 48.6 90.8 84.1 8.5 13.9 24.9 48.2 25.9 47 2.4-2.8-0.3-26-1.3-36.5-2.1-22.6-3.9-24.7-5.6-41.2-0.6-9-3.6-27 3.6-41.1 6.9-13.5 29.7-17.1 41.4-7.9 17 13.3 19.2 46.1 20.1 58.6 3 38.9 4.6 61.8 2.3 97.5-1.6 26.4 0.2 52.3-18.4 65.4-14.4 10-39.6 14.8-50.6 6.3-11.3-8.8-23.5-20-41.2-56.9-8.1-16.8-15.9-39.3-26-55.1-0.8-1.3-4.6-9.2-6.9-7.6-3.6 2.6-1.8 13.1-2.6 26.7-1.8 29.3-3.1 41.7-6.5 59.1-3.1 15.7-3.7 28.3-19.8 37.6-5.3 3-30.7 4.8-37.1-6.1-9.7-16.7-5.4-26.1-2.3-44.9 7.2-44.3 8.6-57.5 10-87.4 1.4-28.6 1.3-38-0.5-61-1.5-18.8 1.4-29.7 3.7-32.1z"/>
		<path id="Layer 4" fill-rule="evenodd" class="s8" d="m1136.4 206.2c-3-12.2-7.1-35.1-12.3-40.2-8.1-7.9-22.6-8.4-32.5-7-4.7 0.6-19.8-2-22.5 2.2-1.1 1.6 3.6 22.7 5.6 49.8 3 40.6 3.1 57.9 0.9 101.1-0.8 15-1.4 32.8-4.6 49.5-0.7 4-3.2 23.8 6.9 30.3 12 7.7 24.4 5.7 34.5 0.6 20.7-10.5 24-62.4 24.7-73.1 0.2-3.3 1.2-19.7 2.8-20.7 2.3-1.5 12.4 15.1 16.5 20.5 8.3 11 15.2 23.5 23.6 36.3 6.7 10.4 12.6 20.6 24 25.6 11.4 5.1 28 4 39.2-3.7 10.8-7.4 1.8-32.2-3.4-42.4-9.7-19.1-17.8-28.1-29.9-45.5-3.2-4.6-21.2-22.9-21.6-25.9-0.4-3.6 8.7-12.7 15.1-22.6 9.5-14.4 13.3-19 20.5-34.2 3-6.3 14.5-25.2 8.7-38.5-6.2-14.5-31-16.1-40.6-13-8.4 2.7-15.6 22.6-24.4 35.2-3.6 5.2-16.1 20.5-19.9 26.6-1.9 3.2-7.6 12.8-8.3 12.5-0.8-0.2-2.1-19.8-3-23.4z"/>
	</g>
	<g id="Folder 5">
		<path id="Layer 17" class="s9" d="m411.8 663.6c-26.1-1.5-50.1-8.9-69.9-25.5-44.4-37.1-52.2-91.2-16-139.5 21.1-28.3 48.7-29.6 78.2-36.6"/>
		<path id="Shape 4" class="s9" d="m474.7 667.5c0-50.5-6.5-100.8-6.5-151.3q0-18.8 0-37.5c0-2.5-0.6-9.7-1.3-12"/>
		<path id="Shape 5" class="s9" d="m473.4 556.2c5.5-3.6 16.9-1.1 23.3-1.6 16.6-1.3 34.9-2.6 51.5-0.9 3.1 0.4 6.5 1.9 9.7 2.5"/>
		<path id="Shape 6" class="s9" d="m573.5 469c0 35.7-0.2 71.5-1.4 107.2-1 30-3.8 59.7-3.8 89.9"/>
		<path id="Shape 7" class="s9" d="m717.5 465.3c-19.4-0.2-38.7-1.9-58.1-2.2-2.5 0-16.4-1.9-18.1 0.4-2.7 3.9-0.8 17.5-0.8 21.1-0.2 14.7 0.2 29.4 0.5 44.2 0.3 17.3-0.4 34.6 0.1 51.9 0.7 25.5-1.4 39.7-1.8 65.1 0 2.2-2.3 18.1 0.8 19.7 3.8 2 20.4-5 24.1-5.7 19.6-3.8 40.8-6.7 60.9-6.7"/>
		<path id="Shape 8" class="s9" d="m643.7 550.1c22.3 0.3 45.4-1.1 67.4 2.4"/>
		<path id="Shape 9" class="s9" d="m856.2 481.4c-4.8-15.3-47.3-23.2-58.9-16.5-18.2 10.4-26.6 40.9-24.7 62.8 0.8 9.7 9.8 21.7 16 26.1 28 19.6 55.3-2.1 73.3 25.4 20 30.6 19.6 68.2-15.2 83.8-6.7 3-14.6 2.2-21.9 1.2-16.4-2.2-31.4-9.6-47.6-13.1"/>
		<path id="Shape 10" class="s9" d="m1014.7 482.3c-19.3-4.6-30.3-21.3-54.7-18.6-39.2 4.5-56.9 62.6-33.8 92.7 6.7 8.8 26.1 16.5 35.8 16.7 20.5 0.4 44.3 0.4 55.2 24.1 13 28.3-11.2 61.2-37 66.9-19.6 4.4-41.2-6-56.8-18.1"/>
	</g>
	<g id="Folder 6">
		<path id="Layer 19 copy" fill-rule="evenodd" class="s10" d="m35.5 117.6c6.8 5.8 13 12.3 19.8 18.1 3.8 3.2 9.9 8.3 14.4 9.8 16.8 6 21.3 5.9 37.3 1.2 3.4-1 9.8-6.6 12.6-8.9 4.9-4 6.7-8.3 8.9-13.4 6.7-15.9 7.3-30 8.2-47.5 0.4-6.7 0.2-13.5 0.2-20.3 0-2.3-0.1-4.6-0.2-7 0-1.2-1.1-4.3-0.2-3.5 1.2 1 4.4 12.9 6.4 16 15.3 23.6 27.4 42.9 56.3 48.9 5.9 1.2 13.7 0.1 19.5-1.7 12.7-4.1 26.7-19.6 31.2-32.1 2.6-7.1 4.9-14.3 6.8-21.7 0.7-2.5 1.6-4.9 2.4-7.3 0.3-1.1 1.6-4.3 1.4-3.2-0.6 2.7-1.9 10.9-2.7 13.5-1.8 6.2 0.1 16.8 0.5 23.3 1.1 14.3 4 28.2 5.5 42.4 1.6 15.5 8 37.1 5.6 43.7-3 8-22.1 10.6-29 12.8-27 8.5-53.8 17.5-81.5 23.9-17 4-33.7 10.1-50.3 15.5-4.8 1.5-12.5 6.4-17.5 3.7-5.9-3.3-18.3-36.8-18.3-36.8-2.7-5.7-6.7-11.2-9.8-16.7-4.4-8-7.6-16.7-12.1-24.8-5.2-9.3-10.4-19.1-16.2-27.7-1.3-1.8-0.8-1.5 0.8-0.2z"/>
		<path id="Layer 24" class="s11" d="m111.2 155c2.9 14 7.3 25.2 17.8 35.4 2.8 2.7 8.8 10.1 12.5 11.1"/>
		<path id="Layer 24" class="s11" d="m85.9 166.3c6.1 13.3 17.6 24.5 22.4 38.5"/>
		<path id="Layer 25" class="s12" d="m211 111.5c7.6 10.5 23.8 19.5 29.8 26.5 0 0 17.5 19.5 24.1 33.4"/>
		<path id="Layer 25" class="s12" d="m249.4 109c2.2 7 8.3 12.7 10.4 19.7"/>
		<path id="Layer 19" fill-rule="evenodd" class="s8" d="m35.5 117.6c6.8 5.8 13 12.3 19.8 18.1 3.8 3.2 9.9 8.3 14.4 9.8 16.8 6 21.3 5.9 37.3 1.2 3.4-1 9.8-6.6 12.6-8.9 4.9-4 6.7-8.3 8.9-13.4 6.7-15.9 7.3-30 8.2-47.5 0.4-6.7 0.2-13.5 0.2-20.3 0-2.3-0.1-4.6-0.2-7 0-1.2-1.1-4.3-0.2-3.5 1.2 1 4.4 12.9 6.4 16 15.3 23.6 27.4 42.9 56.3 48.9 5.9 1.2 13.7 0.1 19.5-1.7 12.7-4.1 26.7-19.6 31.2-32.1 2.6-7.1 4.9-14.3 6.8-21.7 0.7-2.5 1.6-4.9 2.4-7.3 0.3-1.1 1.6-4.3 1.4-3.2-0.6 2.7-1.9 10.9-2.7 13.5-1.8 6.2 0.1 16.8 0.5 23.3 1.1 14.3 4 28.2 5.5 42.4 1.6 15.5 8 37.1 5.6 43.7-3 8-22.1 10.6-29 12.8-27 8.5-53.8 17.5-81.5 23.9-17 4-33.7 10.1-50.3 15.5-4.8 1.5-12.5 6.4-17.5 3.7-5.9-3.3-18.3-36.8-18.3-36.8-2.7-5.7-6.7-11.2-9.8-16.7-4.4-8-7.6-16.7-12.1-24.8-5.2-9.3-10.4-19.1-16.2-27.7-1.3-1.8-0.8-1.5 0.8-0.2z"/>
		<path id="Layer 21" fill-rule="evenodd" class="s13" d="m174.4 145.6c-0.3-0.5-4.7-1.8-5.4-3.1-2.2-1.2-3-2.6-4.7-4.3-0.7-0.8-2.8 4.7-4.1 6.6-0.1 0.2-2.9 5.1-2.8 5.2 3.6 3.3 4.8 2 10.2 8.3 3.6 4.3 3.2 2.2 4 4 0.1 0.3 1.7 3.5 2 3.3 0.9-0.8-0.6-8.9-0.6-9.8-0.1-2.2 1.5-10.1 1.4-10.2z"/>
		<path id="Layer 29" fill-rule="evenodd" class="s14" d="m165.2 133c0.9 1 3.4 3.6 4.4 4.5 1.8 1.5 4.8 2.6 7 3.5 0.1 0-0.2 2.5-0.1 3.4 0 0.5-0.5 1.2-0.6 1 0-0.3-1.5-2.3-2.5-2.9-2.3-1.3-3.2-1.6-5.4-3-0.7-0.6-4.6-2.1-4.5-2.3 1.7-2.5 1.4-4.5 1.7-4.2z"/>
		<path id="Layer 30" class="s15" d="m167.2 167.8c-5.5-7.3-11.5-8.3-14.9-13.3-3.4-5 0.4-9 2-13.9 1.1-3.5 2.7-8.4 7.2-9.5 4.2-1 6.8 2 10.1 3.8 2.6 1.5 7.1 2.3 8.4 5.3 2.2 5.3 0.1 8.5 0 13.9-0.1 3.2 1.3 11.4-0.2 13.4-2.8 4.1-5.1 4.6-8.8 3.3-1.3-0.4-2.6-1.5-3.8-2.9"/>
		<path id="Layer 20" fill-rule="evenodd" class="s16" d="m128.4 17.7c-13.3 3.9-20.9 19.7-11.4 34.4 3 4.6 8 9.2 14.3 10.5 2.9 0.6 8.9-0.8 12-1.9 15-5.8 18.9-30.6 1.2-41.6-2.6-1.5-5.3-2.3-8.2-2.7-3.9-0.6-5.8 0.6-9.5 1.8"/>
		<path id="Layer 28" fill-rule="evenodd" class="s17" d="m128.3 23.4c4.7 4.9 10.2 8.6 14.2 14.1 2.4 3.3 3.8 8.4 6.6 11.2"/>
		<path id="Layer 20 copy" class="s18" d="m128.4 17.7c-13.3 3.9-20.9 19.7-11.4 34.4 3 4.6 8 9.2 14.3 10.5 2.9 0.6 8.9-0.8 12-1.9 15-5.8 18.9-30.6 1.2-41.6-2.6-1.5-5.3-2.3-8.2-2.7-3.9-0.6-5.8 0.6-9.5 1.8"/>
		<path id="Shape 11" fill-rule="evenodd" class="s19" d="m249.2 30.6c-3.4 1.5-6.2 7.1-6.8 10.9-1.6 10.8 5.1 20.1 16.4 20 1.9 0 4-1 5.8-1.5 11.5-3.4 14-11.3 10-23.1-1.8-5.4-6.8-9.1-12.1-9.3-6.3-0.4-7.7 0.4-13.3 3z"/>
		<path id="Layer 27" fill-rule="evenodd" class="s20" d="m258.7 32.1c0.2 2.1 2.6 4.9 3.7 6.6 3 4.4 5.9 9.1 9.5 13"/>
		<path id="Shape 11 copy" fill-rule="evenodd" class="s21" d="m249.2 30.6c-3.4 1.5-6.2 7.1-6.8 10.9-1.6 10.8 5.1 20.1 16.4 20 1.9 0 4-1 5.8-1.5 11.5-3.4 14-11.3 10-23.1-1.8-5.4-6.8-9.1-12.1-9.3-6.3-0.4-7.7 0.4-13.3 3z"/>
		<path id="Shape 12" fill-rule="evenodd" class="s22" d="m29.6 97.5c2.5 0.1 8.2 0.2 10.5 2 6.6 5.4 10.3 17.2 5.9 24.2-5.8 9.1-20.9 12.8-27.9 0.5-0.7-1.3-2.3-5.1-2.8-8.7-0.9-7.8 7.8-18.3 14.3-18z"/>
		<path id="Layer 26" fill-rule="evenodd" class="s23" d="m30.1 104.2c3.6 1.7 10.2 7.7 11 11.9"/>
		<path id="Shape 12 copy" fill-rule="evenodd" class="s21" d="m29.6 97.5c2.5 0.1 8.2 0.2 10.5 2 6.6 5.4 10.3 17.2 5.9 24.2-5.8 9.1-20.9 12.8-27.9 0.5-0.7-1.3-2.3-5.1-2.8-8.7-0.9-7.8 7.8-18.3 14.3-18z"/>
	</g>
</svg>