<svg version="1.2" xmlns="http://www.w3.org/2000/svg" viewBox="0 0 256 256" width="256" height="256">
	<title>Trash</title>
	<style>
		.s0 { fill: #adadad } 
		.s1 { fill: none;stroke: #737373;stroke-linecap: round;stroke-linejoin: round;stroke-width: 16 } 
		.s2 { fill: none;stroke: #000000;stroke-linecap: round;stroke-linejoin: round;stroke-width: 16 } 
	</style>
	<path id="Layer 3" fill-rule="evenodd" class="s0" d="m120.7 223.4c11.1 0 23.6 2.4 34.6-0.1 8.8-2 21-3.2 27.8-9.6 24.4-23.5 10.1-73.9 13.1-103.7 1.5-13.8 25.7-29.2 15.2-46.4-6.2-10.1-41.5-0.9-49.9-6.2-9.3-5.9-2.1-27.4-15.6-28.7-11.7-1.1-34.3-4.8-43.7 4-6.4 6-3.1 25.4-6.1 27.1-14.7 8-41.6-10.5-54.5 18.5-3.5 7.8 9.6 10.4 13 15.7 2.8 4.4 2.1 11.4 2.5 16.4 2 24.7 3.9 49.8 6.8 74.5 1.2 10.4-0.6 22.4 8.9 30.1 8.4 6.8 39.7 8.4 51.4 9.1"/>
	<path id="Layer 4" class="s1" d="m121.2 36.9c-30.9 21.2 6.2 3.2 10.4 2.7 30.3-3.8-34.3 11.7 13.7 4.9"/>
	<path id="Layer 4" class="s1" d="m113 56.8c10.5 0 28.9 2.4 39.4 7.6 11.2 5.5 36.8 13.4 54.7 15.2"/>
	<path id="Layer 4" class="s1" d="m182.7 63.7c6 4.4 13.9 6 20 10.2"/>
	<path id="Layer 4" class="s1" d="m193.6 147.6c1.3-0.6-0.8-5.7-1-6.8-1.1-5.5-2.4-10.8-3.9-16.2-5.6-19.7-31.2-32.3-51.6-32.3"/>
	<path id="Layer 4" class="s1" d="m189.3 99.8c2.1 0.7 1 4.4 1 5.9"/>
	<path id="Layer 2" class="s2" d="m45.6 91.5c27.4 0 54.7 0.8 82.1 0.8 11.5 0 22.8-1.4 34.3-1 11.4 0.4 22.9 0.5 34.2 1.2 4 0.3 12.7 2.5 16.5 0.4 1.1-0.6-0.1-4.3-0.2-5.3-0.7-5.6 0.6-11.5-0.3-17.1-2.6-17.4-42.8-13.7-55.1-12.8-25.8 1.9-49.8-3-77.2 0-9.5 1-21-2.1-28.5 5.5-5.6 5.6-5.8 20.5-5.8 28"/>
	<path id="Layer 2" class="s2" d="m55.5 101.1c1.6 25 4.2 50.7 7.7 75.7 2 14-0.7 29 9.1 40.8 7.9 9.5 41.5 7.9 53.6 7.5 15.6-0.6 39.9 4.6 52.7-5 21.2-15.9 13.8-51.2 15.1-72.1 0.9-14.7 5.5-30.6 5.6-45.3"/>
	<path id="Layer 2" class="s2" d="m95.8 187.3c-2.1-7.6-0.6-13-0.9-20.4-0.4-8.1-1.9-16.8-2.7-24.9-0.4-4.5-0.1-10.1-1.7-14.4"/>
	<path id="Layer 2" class="s2" d="m128.1 188.7c0.7-1.2 0-3.7-0.1-5-0.4-4.1-0.6-8.5-0.6-12.6-0.1-7.3 0.9-14.5 1-21.8 0.1-8-0.8-15.8-0.8-23.7"/>
	<path id="Layer 2" class="s2" d="m160.4 189.8c1.6-5.7 0.5-13 1.1-19 1.6-14.9 2.5-30.3 2.7-45.4"/>
	<path id="Layer 2" class="s2" d="m101.5 55.8c-1.2-0.6-0.7-5.3-0.8-6.4-1-6.8 0.7-15 6.5-19.7 3.4-2.8 13.5-1.4 17.3-1.4 11.7 0.1 27.9-4.8 29.5 10.9 0.3 2.8 1 5.6 1 8.5 0.2 3.9 1.5 5.2 0.9 9.1"/>
</svg>